<?xml version="1.0" encoding="UTF-8" standalone="no"?>
<!-- Generator: Adobe Illustrator 28.1.0, SVG Export Plug-In . SVG Version: 6.00 Build 0)  -->

<svg
   version="1.1"
   id="Layer_1"
   x="0px"
   y="0px"
   viewBox="0 0 280.6 97.9"
   style="enable-background:new 0 0 280.6 97.9;"
   xml:space="preserve"
   xmlns:xlink="http://www.w3.org/1999/xlink"
   xmlns="http://www.w3.org/2000/svg"
   xmlns:svg="http://www.w3.org/2000/svg"><defs
   id="defs85" />
<style
   type="text/css"
   id="style1">
	.st0{clip-path:url(#SVGID_00000119820223559640415510000013363331546277348028_);}
	.st1{fill:#FFFFFF;}
	.st2{clip-path:url(#SVGID_00000056397509842160875840000013292598761084118924_);}
	.st3{fill:#B90E31;}
	.st4{clip-path:url(#SVGID_00000085215900732034897810000003729730775716276906_);}
	.st5{clip-path:url(#SVGID_00000169531171264363978250000001773138356053264036_);}
	.st6{clip-path:url(#SVGID_00000178903611762087351250000017002888115807574711_);}
	.st7{clip-path:url(#SVGID_00000114036577006235649410000006658603611302744459_);}
	.st8{clip-path:url(#SVGID_00000130626852540133951330000012512850175480849808_);}
	.st9{clip-path:url(#SVGID_00000021799188899516173930000005111896722880555928_);}
	.st10{clip-path:url(#SVGID_00000005229718650383327940000003776240472429523642_);}
	.st11{clip-path:url(#SVGID_00000045615645655697243890000000167913096657784743_);}
	.st12{clip-path:url(#SVGID_00000139978073666666468010000014311377526552166556_);}
	.st13{clip-path:url(#SVGID_00000083073291471103422150000012547838606818462348_);}
	.st14{clip-path:url(#SVGID_00000085210186748231486660000008979050090106301091_);}
	.st15{clip-path:url(#SVGID_00000118365895533171209260000006511906464375756187_);}
	.st16{clip-path:url(#SVGID_00000036965770233154759930000000427086826210343842_);}
	.st17{clip-path:url(#SVGID_00000110470156872008001870000012445693755265449874_);}
	.st18{clip-path:url(#SVGID_00000181060900779628463300000004644872999692086411_);}
	.st19{clip-path:url(#SVGID_00000164509779573692968930000015746252940178644102_);}
	.st20{clip-path:url(#SVGID_00000153678125636956850400000017535141230910040221_);}
	.st21{clip-path:url(#SVGID_00000146470972862453544520000012628484219559062717_);}
	.st22{clip-path:url(#SVGID_00000137109561433655924140000006614962686415831684_);}
	.st23{clip-path:url(#SVGID_00000114785080270020853030000010452307289546086585_);}
	.st24{clip-path:url(#SVGID_00000159453103307735301230000007004252550931892622_);}
	.st25{clip-path:url(#SVGID_00000067216872278677959790000001063568853230835879_);}
	.st26{clip-path:url(#SVGID_00000128455053379502401520000010120298372121217942_);}
	.st27{clip-path:url(#SVGID_00000094575850500256073680000010535777204591812779_);}
	.st28{clip-path:url(#SVGID_00000099634292523669766040000003208868217166129595_);}
	.st29{clip-path:url(#SVGID_00000148659031896062762570000016463382314078207921_);}
	.st30{clip-path:url(#SVGID_00000151503566920205067320000011236180042879237279_);}
	.st31{fill:#8E1537;}
	.st32{clip-path:url(#SVGID_00000147185899850062284720000010498913677380560006_);}
	.st33{clip-path:url(#SVGID_00000147198211223647109250000008617816771203097237_);}
	.st34{clip-path:url(#SVGID_00000054953176063942074050000005382423770740842933_);}
	.st35{clip-path:url(#SVGID_00000145753059825758210990000017351485126166649006_);}
	.st36{clip-path:url(#SVGID_00000166674952990444149970000011489329702125340594_);}
	.st37{clip-path:url(#SVGID_00000033362537012467380350000000901637072220349103_);}
	.st38{clip-path:url(#SVGID_00000124156391043681113610000010869857832352644765_);}
	.st39{clip-path:url(#SVGID_00000037681705879741986740000003806434904701389443_);}
	.st40{clip-path:url(#SVGID_00000102527159446997019320000005789725512345802641_);}
	.st41{clip-path:url(#SVGID_00000018235589707254229560000001995620375295433405_);}
	.st42{clip-path:url(#SVGID_00000132067486882170755440000017464265065228483749_);}
	.st43{clip-path:url(#SVGID_00000107579539943654050730000005417761447706743967_);}
	.st44{clip-path:url(#SVGID_00000098933012904822202830000005160838133599058309_);}
	.st45{clip-path:url(#SVGID_00000036949007708220091590000017138374972461731717_);}
	.st46{clip-path:url(#SVGID_00000106138270301401600870000001320230492925523629_);}
	.st47{clip-path:url(#SVGID_00000065767934219360175850000007570106899343472556_);}
	.st48{clip-path:url(#SVGID_00000037658090059225912780000007357977523501310095_);}
	.st49{clip-path:url(#SVGID_00000157276459961839544510000011411624933147548324_);}
	.st50{clip-path:url(#SVGID_00000119816654579598578260000015698242434582972851_);}
	.st51{clip-path:url(#SVGID_00000050633098416233881940000001937340933487133836_);}
	.st52{clip-path:url(#SVGID_00000013901621797523425700000018113758725281599903_);}
	.st53{clip-path:url(#SVGID_00000161601819271174118490000014896385104582890911_);}
	.st54{clip-path:url(#SVGID_00000099629943127631939420000014630997107527903106_);}
	.st55{clip-path:url(#SVGID_00000173872255337758895010000000786880629450956220_);}
	.st56{clip-path:url(#SVGID_00000048491800587919261580000005773236094199279024_);}
	.st57{clip-path:url(#SVGID_00000096047165836998190230000002098250069456100485_);}
	.st58{clip-path:url(#SVGID_00000058590383167694202230000000000444150467074739_);}
	.st59{clip-path:url(#SVGID_00000003064614762692642420000014421990599618322054_);}
	.st60{clip-path:url(#SVGID_00000066477611469481629890000002278457108613081277_);}
	.st61{enable-background:new    ;}
</style>
<g
   id="Group_17300"
   transform="translate(4.4 1.28)">
	<g
   id="Group_17233">
		<g
   id="Group_17178">
			<g
   id="g1">
				<defs
   id="defs1">
					<rect
   id="SVGID_1_"
   x="-4.4"
   y="-1.3"
   width="85.9"
   height="97.9" />
				</defs>
				<clipPath
   id="SVGID_00000011028784530643941840000014867980520481799601_">
					<use
   xlink:href="#SVGID_1_"
   style="overflow:visible;"
   id="use1" />
				</clipPath>
				<g
   id="Group_17177"
   style="clip-path:url(#SVGID_00000011028784530643941840000014867980520481799601_);"
   clip-path="url(#SVGID_00000011028784530643941840000014867980520481799601_)">
					<path
   id="Path_11980"
   class="st1"
   d="M38-0.1L37.7,0C26.6,6.3,15,7.3,4.8,2.8L4,2.5L3.9,3.3c-1.6,10.8-1.6,21.8,0,32.6       c1.7,10,4.9,18.7,9.6,25.7c5.9,8.7,14.6,15.2,24.6,18.4l0.2,0.1l0.2-0.1c10.1-3.2,18.7-9.7,24.6-18.4c4.7-7,8-15.6,9.6-25.7       c1.7-10.8,1.7-21.8,0-32.6l-0.2-0.8l-0.8,0.3C61.8,7.3,50.1,6.4,39,0l-0.7-0.4L38-0.1z" />
				</g>
			</g>
		</g>
		<g
   id="Group_17180">
			<g
   id="g2">
				<defs
   id="defs2">
					<rect
   id="SVGID_00000079448972130574138150000008390854001307582855_"
   x="-4.4"
   y="-1.3"
   width="85.9"
   height="97.9" />
				</defs>
				<clipPath
   id="SVGID_00000105413938140941259610000018425966365759443587_">
					<use
   xlink:href="#SVGID_00000079448972130574138150000008390854001307582855_"
   style="overflow:visible;"
   id="use2" />
				</clipPath>
				<g
   id="Group_17179"
   style="clip-path:url(#SVGID_00000105413938140941259610000018425966365759443587_);"
   clip-path="url(#SVGID_00000105413938140941259610000018425966365759443587_)">
					<path
   id="Path_11981"
   class="st3"
   d="M50,42.3c0.9-1.1,3.6-1.3,5.1-0.6c1.5,0.7,2.1,1.4,3.9,0.9c-0.4,3.1-1.7,14-1.7,14       s-3.4-0.7-4.1-0.8c-1-0.2-2.4-0.4-3.2,0.5c-0.8-0.9-2.2-0.7-3.2-0.5l-4.1,0.8c0,0-1.2-10.9-1.7-14c1.8,0.5,2.4-0.2,3.9-0.9       C46.4,41,49.2,41.1,50,42.3" />
				</g>
			</g>
		</g>
		<g
   id="Group_17182">
			<g
   id="g3">
				<defs
   id="defs3">
					<rect
   id="SVGID_00000158729268312545696250000011969905739948746686_"
   x="-4.4"
   y="-1.3"
   width="85.9"
   height="97.9" />
				</defs>
				<clipPath
   id="SVGID_00000088126307690242853010000008670127992634040985_">
					<use
   xlink:href="#SVGID_00000158729268312545696250000011969905739948746686_"
   style="overflow:visible;"
   id="use3" />
				</clipPath>
				<g
   id="Group_17181"
   style="clip-path:url(#SVGID_00000088126307690242853010000008670127992634040985_);"
   clip-path="url(#SVGID_00000088126307690242853010000008670127992634040985_)">
					<path
   id="Path_11982"
   class="st3"
   d="M60.1,42.7c-0.4,2.8-1.4,10.9-1.9,15.3c-1.7-0.6-3.4-0.9-5.1-1.1       c-1.1-0.1-2.2,0.1-3.1,0.6c-0.9-0.5-2-0.7-3.1-0.6c-1.8,0.1-3.5,0.5-5.1,1.1c-0.5-4.4-1.5-12.5-1.9-15.3c-0.5,0-1.2-0.1-2-0.1       c0.6,4,2.3,18.1,2.3,18.1s3-0.6,4.7-0.9v6h2.8v-6.4c0.8-0.1,1.7,0.2,2.3,0.8c1-1.1,2.9-0.8,4.2-0.6c1,0.2,5.6,1.1,5.6,1.1       s1.7-14.1,2.3-18.1C61.3,42.7,60.7,42.7,60.1,42.7" />
				</g>
			</g>
		</g>
		<g
   id="Group_17184">
			<g
   id="g4">
				<defs
   id="defs4">
					<rect
   id="SVGID_00000103262291402235424530000017069820035100653191_"
   x="-4.4"
   y="-1.3"
   width="85.9"
   height="97.9" />
				</defs>
				<clipPath
   id="SVGID_00000021798450057397210550000015432742155880629905_">
					<use
   xlink:href="#SVGID_00000103262291402235424530000017069820035100653191_"
   style="overflow:visible;"
   id="use4" />
				</clipPath>
				<g
   id="Group_17183"
   style="clip-path:url(#SVGID_00000021798450057397210550000015432742155880629905_);"
   clip-path="url(#SVGID_00000021798450057397210550000015432742155880629905_)">
					<rect
   id="Rectangle_1315"
   x="49.5"
   y="41.6"
   class="st1"
   width="1.1"
   height="15" />
				</g>
			</g>
		</g>
		<g
   id="Group_17186">
			<g
   id="g5">
				<defs
   id="defs5">
					<rect
   id="SVGID_00000108989119528527261000000009482927030904380095_"
   x="-4.4"
   y="-1.3"
   width="85.9"
   height="97.9" />
				</defs>
				<clipPath
   id="SVGID_00000060713379338516621330000007129163131179194512_">
					<use
   xlink:href="#SVGID_00000108989119528527261000000009482927030904380095_"
   style="overflow:visible;"
   id="use5" />
				</clipPath>
				<g
   id="Group_17185"
   style="clip-path:url(#SVGID_00000060713379338516621330000007129163131179194512_);"
   clip-path="url(#SVGID_00000060713379338516621330000007129163131179194512_)">
					<path
   id="Path_11983"
   class="st3"
   d="M72.5,3.2c-16.9,7.5-32.1-1.9-34.2-3.1c-2.1,1.2-17.3,10.5-34.2,3c0,0-6.8,37,11.4,60.7       L72.5,3.2z" />
				</g>
			</g>
		</g>
		<g
   id="Group_17188">
			<g
   id="g6">
				<defs
   id="defs6">
					<rect
   id="SVGID_00000173877082534384771290000002756482859798388123_"
   x="-4.4"
   y="-1.3"
   width="85.9"
   height="97.9" />
				</defs>
				<clipPath
   id="SVGID_00000099639182593789069090000004154270044681456548_">
					<use
   xlink:href="#SVGID_00000173877082534384771290000002756482859798388123_"
   style="overflow:visible;"
   id="use6" />
				</clipPath>
				<g
   id="Group_17187"
   style="clip-path:url(#SVGID_00000099639182593789069090000004154270044681456548_);"
   clip-path="url(#SVGID_00000099639182593789069090000004154270044681456548_)">
					<path
   id="Path_11984"
   d="M38-0.6l-0.3,0.2C26.5,6,14.7,7,4.5,2.5L3.7,2.1L3.5,3c-1.7,10.9-1.7,22,0,32.9       C5.2,46,8.5,54.7,13.3,61.8c6,8.8,14.7,15.4,24.9,18.6l0.2,0.1l0.2-0.1c10.2-3.2,18.9-9.8,24.9-18.6c4.8-7.1,8.1-15.8,9.7-25.9       c1.7-10.9,1.7-22,0-32.9l-0.2-0.9l-0.8,0.3C62,7,50.2,6,39-0.4l-0.7-0.4L38-0.6z M38.4,0.8C49.6,7.3,61.6,8.4,72,4.1       c0.7,5.1,1.1,10.3,1.1,15.5c0,5.4-0.4,10.8-1.3,16.2C70.2,45.6,67,54.1,62.3,61c-5.7,8.5-14.2,14.8-23.9,18       c-9.8-3.1-18.2-9.5-23.9-18c-4.7-6.9-7.9-15.4-9.5-25.4C4,30.3,3.6,24.9,3.6,19.5C3.6,14.3,4,9.2,4.7,4.1       C15.2,8.4,27.1,7.2,38.4,0.8" />
				</g>
			</g>
		</g>
		<g
   id="Group_17190">
			<g
   id="g7">
				<defs
   id="defs7">
					<rect
   id="SVGID_00000053518504432931887660000007520851277184674705_"
   x="-4.4"
   y="-1.3"
   width="85.9"
   height="97.9" />
				</defs>
				<clipPath
   id="SVGID_00000061457666474591356600000001302214122283582887_">
					<use
   xlink:href="#SVGID_00000053518504432931887660000007520851277184674705_"
   style="overflow:visible;"
   id="use7" />
				</clipPath>
				<g
   id="Group_17189"
   style="clip-path:url(#SVGID_00000061457666474591356600000001302214122283582887_);"
   clip-path="url(#SVGID_00000061457666474591356600000001302214122283582887_)">
					<path
   id="Path_11985"
   d="M38.4,80.5l-0.2-0.1C28,77.2,19.2,70.7,13.2,61.8C8.5,54.7,5.2,46,3.5,35.9C1.8,25,1.8,13.9,3.5,3       L3.6,2l0.8,0.4C14.7,7,26.5,6,37.7-0.4l0.7-0.4l0,0l0.7,0.4C50.2,6,62,7,72.3,2.4l0.8-0.4L73.3,3c1.7,10.9,1.7,22,0,32.9       c-1.7,10.1-5,18.9-9.7,25.9c-6,8.8-14.7,15.4-24.9,18.6L38.4,80.5z M3.7,2.2L3.6,3c-1.7,10.9-1.7,22,0,32.9       C5.3,46,8.5,54.7,13.3,61.8c5.9,8.8,14.7,15.4,24.8,18.6l0.2,0.1l0.2-0.1c10.1-3.2,18.9-9.8,24.8-18.6c4.8-7.1,8-15.8,9.7-25.9       c1.7-10.9,1.7-22,0-32.9L73,2.2l-0.7,0.3C62,7.1,50.2,6.1,39-0.3l-0.6-0.4l-0.6,0.4c-11.2,6.4-23,7.4-33.3,2.8L3.7,2.2z        M38.4,79.1L38.4,79.1c-9.8-3.2-18.2-9.5-24-18c-4.7-6.9-7.9-15.4-9.5-25.4C4,30.3,3.6,24.9,3.6,19.5C3.6,14.3,3.9,9.2,4.7,4       l0-0.1l0.1,0c10.4,4.3,22.4,3.2,33.6-3.2l0,0l0,0C49.6,7.2,61.5,8.3,72,4l0.1,0l0,0.1c0.7,5.1,1.1,10.3,1.1,15.5       c0,5.4-0.4,10.8-1.3,16.2c-1.7,9.9-4.9,18.5-9.5,25.4C56.6,69.6,48.2,75.9,38.4,79.1L38.4,79.1z M4.8,4.1       C4,9.2,3.7,14.3,3.7,19.5c0,5.4,0.4,10.8,1.3,16.2c1.7,9.9,4.8,18.5,9.5,25.3c5.7,8.5,14.2,14.8,23.9,18       c9.8-3.1,18.2-9.5,23.9-18c4.7-6.9,7.9-15.4,9.5-25.3c0.9-5.3,1.3-10.8,1.3-16.2c0-5.1-0.3-10.3-1.1-15.4       C61.5,8.4,49.6,7.3,38.4,0.9C27.1,7.3,15.2,8.4,4.8,4.1z" />
				</g>
			</g>
		</g>
		<g
   id="Group_17192">
			<g
   id="g8">
				<defs
   id="defs8">
					<rect
   id="SVGID_00000042703082790190890720000000190377218789384127_"
   x="-4.4"
   y="-1.3"
   width="85.9"
   height="97.9" />
				</defs>
				<clipPath
   id="SVGID_00000092443061838832961640000007511872971344543397_">
					<use
   xlink:href="#SVGID_00000042703082790190890720000000190377218789384127_"
   style="overflow:visible;"
   id="use8" />
				</clipPath>
				<g
   id="Group_17191"
   style="clip-path:url(#SVGID_00000092443061838832961640000007511872971344543397_);"
   clip-path="url(#SVGID_00000092443061838832961640000007511872971344543397_)">
					<path
   id="Path_11986"
   class="st1"
   d="M41.1,23.5c-0.4-0.4-0.7-0.9-1-1.3c-0.2-0.2-0.4-0.5-0.5-0.7c-0.1-0.6-0.1-1.2-0.2-1.7       c0-0.3-0.1-0.6-0.1-0.8c0-0.3-0.1-0.6-0.1-0.9c-0.1-0.5-0.2-1.1-0.3-1.6c-0.1-0.6-0.2-1.2-0.4-1.8c-0.5-1-1.3-1.8-2.4-2.2       c-0.7-0.2-1.4-0.5-2.1-0.6c-0.5-0.1-1.1-0.1-1.6,0c-1.1,0-4.5,0-5.3,0.1c-1,0-2-0.1-3-0.1c-1.2,0-2.3-0.2-3.4-0.2       c-0.3,0-0.7,0-1,0c-0.3,0-0.6,0-0.9,0c-0.3,0-0.5,0.1-0.8,0.1c-0.1,0-0.2,0.1-0.3,0.1c-0.1,0-0.2-0.1-0.4-0.1       c-0.3,0-0.5,0.1-0.8,0.2c-0.6,0-1.1,0-1.7-0.1c-0.4-0.1-0.8-0.2-1.3-0.3c-0.1-0.3,0.1-0.7,0-1c-0.1-0.2-0.4-0.7-0.6-0.7       c-0.2,0-0.6,0.4-0.7,0.6c-0.2,0.3,0.2,0.6,0.1,0.9c-0.4,0-1.5,0-1.8,0.1c-0.1-0.2-0.2-1.4-0.5-1.5c-0.2,0-0.5,1.1-0.6,1.3       s0.1,0.5,0,0.6c-0.1,0.2-0.1,0.4-0.2,0.5c-0.5,0.4-0.1,0.9-0.5,1.3c-0.5,0.4-2.5,0.7-2.2,1.6c0.1,0.4,0.5,0.4,0.8,0.7       c0.2,0.3,0.4,0.6,0.5,0.9c0-0.3,0-0.7,0-0.7c0.9,0.1,0.1-0.1,0.8,0c0.1,0-0.5,0.7-0.7,0.8C7.9,17,8.1,17,7.8,16.9       c0,0,0-0.1,0-0.1c-0.9,0.5,0.5,0.7,0.8,0.7c0.4,0,0.8-0.1,1.2-0.2c0.2-0.1,0.5-0.1,0.8-0.1c0.2-0.1,0.5-0.1,0.7,0       c0.3,0.1,0.6,0.1,0.9,0.1c0.3,0,0.6,0,1,0c0.8,0.2,1.5,0.4,2.2,0.8c0.6,0.2,1.2,0.5,1.8,0.8c0.6,0.3,1.2,0.5,1.4,1.3       c0.1,1.2,0.1,2.5-0.1,3.7c0,0.8-0.1,1.7-0.2,2.5c-0.1,0.5,0,1.2-0.5,1.5c-0.5,0.3-1,0.2-1.1,0.9c0,0.3-0.1,0.6-0.1,0.9h-0.8       v2.7l24.6,0v-2.7h-0.9c0.2,0,0.4-0.1,0.6-0.3c0.3-0.3,0.3-0.8,0.3-1.2c0.1-0.5,0.3-1.1,0.4-1.6c0.1-0.6,0.2-1.1,0.4-1.6       C41.4,24.3,41.5,24,41.1,23.5 M27,28.8c0-0.1,0-0.1-0.1-0.2c-0.1-0.1-0.1-0.3-0.1-0.4c0.1,0,0.2,0,0.3-0.1c0.3-0.1,0.6-0.1,1,0       c0.3,0.1,0.3,0.5,0.6,0.6C28.1,28.8,27.5,28.8,27,28.8 M30.3,25c-0.3,0.1-0.8,0.1-0.8,0.5c0,0.4,0,0.8,0.2,1.1       c0.1,0.1,0.1,0.3,0.2,0.4c0.1,0.1,0.2,0.2,0.2,0.4c0,0.2-0.3,0.4-0.5,0.5c-0.2-0.1-0.3-0.2-0.5-0.3c-0.4-0.2-0.7-0.5-1.1-0.7       c-0.2-0.1-0.4-0.1-0.6-0.2c-0.2-0.1-0.1-0.2-0.2-0.5c0-0.2-0.1-0.3-0.2-0.5c0-0.2,0-0.4,0-0.6c0-0.3-0.1-0.9,0.3-0.9       c0.2,0,0.4,0,0.6,0c0.2,0,0.4,0,0.6-0.1c0.5-0.1,0.3-0.5,0.1-0.8c-0.1-0.2-0.2-0.3-0.4-0.5c-0.2-0.2-0.4-0.4-0.5-0.6       c-0.1-0.2,0.1-0.5-0.1-0.7c-0.1-0.1-0.4-0.4-0.6-0.4c-0.1,0.2,0.1,0.2,0.1,0.4c0,0.1,0.1,0.3,0,0.4c-0.1,0-0.2-0.3-0.3-0.2       c-0.1,0.1,0,0.2,0,0.3c0,0.2,0.1,0.2,0.2,0.3s0.1,0.2,0.2,0.3s0.5,0.5,0.3,0.6c-0.3-0.1-0.5-0.1-0.8-0.3c0-0.1,0.1-0.2,0.1-0.3       c0-0.1,0-0.2-0.1-0.3c-0.1-0.2-0.2-0.4-0.3-0.6c-0.4-0.5-1-0.7-1.4-0.1c-0.1,0.1-0.3,0.2-0.4,0.3c-0.1,0.1-0.2,0.3-0.2,0.5       c0,0.2,0.2,0.3,0.2,0.5c0,0.2-0.3,0.1-0.4,0.2c-0.1,0.1-0.3,0.3-0.3,0.4c-0.1,0.1-0.1,0.3-0.2,0.4c-0.1,0.1-0.4,0-0.5,0.2       c-0.1,0.2,0,0.1,0.1,0.2c0,0.1,0,0.3,0,0.4c0,0.2,0.1,0.5,0.3,0.7c0.1,0.1,0.4,0.1,0.5,0c0.1-0.1,0.1-0.1,0.1-0.2       c0-0.2,0-0.6,0.4-0.5c0.1,0.4,0,0.8-0.1,1.1c-0.1,0.3-0.7,0.3-0.9,0.4c-0.3,0.1-0.5,0.5-0.5,0.8c0.1,0.2,0.2,0.3,0.3,0.4       s0.2,0.3,0.3,0.4c0.1,0.2,0.2,0.3,0.4,0.3c0.1,0,0.4,0.1,0.3,0.3c-0.1,0.1-0.3-0.1-0.4,0.2c-0.7,0-3.9,0.1-4.6,0.1       c0-0.1,0-0.1,0-0.2c0-0.4,0.1-0.8,0.2-1.1c0-0.2,0.1-0.4,0.2-0.5c0.1-0.2,0.2-0.4,0.1-0.6c0-0.3,0-0.6,0-0.9       c0-0.2,0.1-0.4,0.1-0.6c0-0.2,0-0.3,0.1-0.5c0.1-0.4,0.2-0.9,0.3-1.4c0.2-0.6,0.5-1.2,0.6-1.8c0-0.3,0.1-0.6,0.1-0.9       c0.2-0.2,0.5-0.2,0.7-0.1c0.2,0.1,0.3,0.4,0.4,0.6c0.2,0.3,0.3,0.5,0.5,0.2c0.2-0.2,0.3-0.4,0.4-0.6c0.3-0.4,0.6-0.9,1.2-0.7       c0.2,0.1,0.3,0.3,0.5,0.5c0.2,0.1,0.3,0.3,0.4,0.5c0,0.1,0,0.2,0.2,0.2s0.2,0,0.2-0.1c0.1-0.2,0.2-0.4,0.3-0.6       c0.2-0.4,0.5-1.2,1.1-0.8c0.2,0.1,0.4,0.4,0.6,0.6c0.1,0.1,0.2,0.2,0.3,0.3c0,0,0.2,0.3,0.2,0.3c0.4,0.2,0.7-0.8,0.9-1.1       c0.5-1,0.8-0.1,1.2,0.4c0.1,0.1,0.1,0.2,0.2,0.2c0.2,0,0.2-0.1,0.3-0.2c0.3-0.1,0.2,0,0.4,0.1l0,0.1c-0.2,0.1-0.5,0.4-0.4,0.6       c0.1,0.2,0.3,0.5,0.1,0.7C31.1,22,30.9,22,30.8,22c-0.1,0.1-0.2,0.2-0.3,0.3c-0.1,0.2-0.2,0.6-0.5,0.6c-0.1,0-0.3-0.2-0.3-0.4       c-0.1-0.1-0.2-0.2-0.3-0.4c-0.1-0.2-0.2-0.3-0.3-0.3c-0.2-0.1-0.3-0.1-0.5-0.1c-0.1,0.2,0.2,0.2,0.2,0.4       c-0.2,0.1-0.6-0.2-0.8,0c-0.3,0.3,0.3,0.4,0.4,0.5s0.2,0.1,0.4,0.1c0.2,0,0.3,0.1,0.4,0.2c0.2,0.3,0.4,0.6,0.6,0.8       c0.1,0.1,0.3,0.3,0.5,0.2c0.1,0,0.2-0.1,0.2-0.2c0.1-0.1,0.2-0.1,0.3-0.2c0,0.3,0,0.6,0.1,0.9c0,0.2,0.1,0.2-0.1,0.3       C30.6,24.9,30.4,25,30.3,25 M31.5,28.3c-0.1,0-0.3,0-0.4,0c0.1-0.1-0.1-0.3-0.1-0.4c0-0.2,0-0.3,0-0.5c0-0.3,0-0.7-0.1-1       c0.2,0,0.4,0,0.6,0.1c0.2,0.1,0.3,0.3,0.5,0.2c0-0.1,0.2-0.2,0.2-0.3s0.1-0.2,0.1-0.1c0,0.1,0,0.2,0,0.4c0,0.1,0,0.2,0,0.3       c0,0.4,0.2,0.8,0.4,1.1C32.3,28.1,31.9,28.1,31.5,28.3 M36.5,26.3c0,0.3,0,0.6-0.1,0.9c-0.1,0.4-0.2,0.4-0.5,0.4       c-0.5,0-1.2,0.5-1.3,1l-0.2,0c-0.1-0.2-0.3-0.3-0.5-0.3c0-0.2,0-0.4,0-0.6c0-0.2-0.1-0.4-0.2-0.5c-0.1-0.3-0.1-0.6-0.2-1       c0-0.2,0-0.3-0.1-0.5c0-0.1-0.1-0.2-0.2-0.4c0-0.1-0.1-0.3-0.1-0.4c0-0.1-0.2-0.2-0.2-0.3c0-0.2,0.2,0,0.3,0       c0.1,0,0.3,0,0.4-0.1c0.1-0.1,0.2-0.2,0.3-0.4c0.1-0.1,0-0.3,0-0.4c-0.1-0.3-0.2-0.7-0.2-1c0-0.1-0.1-0.3-0.2-0.4       c-0.1-0.1-0.2-0.1-0.3-0.2c-0.1-0.1-0.1-0.3,0-0.4c0,0,0,0,0,0c0.1-0.1,0.1-0.1,0.2-0.1c0.1,0,0.1-0.1,0.1-0.2       c0.1,0.1,0.2,0.2,0.3,0.3c0.4,0.4,0.8,0.8,1.3,1.2c0.2,0.2,0.5,0.6,0.7,0.8c0.2,0.2,0.4,0.5,0.5,0.8       C36.5,25.1,36.6,25.7,36.5,26.3 M39.5,25.9c0,0.3-0.1,0.5-0.1,0.8c0,0.3-0.1,0.6-0.1,0.9c0,0.4-0.1,0.4-0.5,0.5       c-0.2,0-0.3,0-0.5,0.1s-0.2,0.3-0.3,0.5c-0.1,0.1-0.3,0.3-0.4,0.4l-1,0c0.1-0.1,0.1-0.2,0.2-0.3c0.1-0.3,0.4-0.5,0.5-0.8       c0.2-0.5,0.4-1,0.5-1.5c0.1-0.5,0.4-0.9,0.5-1.4c0.2-0.4,0.2-0.9-0.1-1.3c-0.1-0.2-0.2-0.5-0.3-0.7c-0.1-0.2-0.4-0.4-0.3-0.7       c0.2,0,0.4,0.2,0.5,0.4c0.2,0.3,0.5,0.5,0.7,0.8c0.3,0.4,0.5,0.9,0.7,1.4C39.4,25.3,39.5,25.6,39.5,25.9" />
				</g>
			</g>
		</g>
		<g
   id="Group_17194">
			<g
   id="g9">
				<defs
   id="defs9">
					<rect
   id="SVGID_00000022551871763063864320000018083706134174741387_"
   x="-4.4"
   y="-1.3"
   width="85.9"
   height="97.9" />
				</defs>
				<clipPath
   id="SVGID_00000056416137106639142580000012261407503530486197_">
					<use
   xlink:href="#SVGID_00000022551871763063864320000018083706134174741387_"
   style="overflow:visible;"
   id="use9" />
				</clipPath>
				<g
   id="Group_17193"
   style="clip-path:url(#SVGID_00000056416137106639142580000012261407503530486197_);"
   clip-path="url(#SVGID_00000056416137106639142580000012261407503530486197_)">
					<path
   id="Path_11987"
   class="st1"
   d="M19,29.4c-0.1,0-0.2,0-0.3,0c-0.1,0-0.1-0.1-0.1-0.2c0,0,0,0,0,0c0-0.1,0.1-0.1,0.2-0.1       c0,0,0,0,0,0c0.2,0,0.3,0,0.5,0c0.1,0,0.1,0,0.1-0.2v-0.1c0-0.3,0-0.6,0.1-0.9c0-0.1,0-0.2,0.1-0.3c0-0.2,0.1-0.4,0.3-0.6       c0.1-0.1,0.1-0.3,0.1-0.4c0-0.3,0-0.6,0-0.9c0-0.1,0-0.2,0-0.2c0-0.1,0-0.2,0.1-0.3c0-0.1,0-0.1,0-0.2c0-0.1,0.1-0.2,0-0.3       c0-0.1,0.1-0.2,0.2-0.2s0.2,0.1,0.2,0.2c0,0.1,0,0.3-0.1,0.4c0,0,0,0.1,0,0.1c0,0.1,0,0.2-0.1,0.3c0,0.1,0,0.2,0,0.2       c-0.1,0.3-0.1,0.6,0,0.8c0,0.2,0,0.5-0.2,0.7c-0.1,0.1-0.2,0.3-0.2,0.4c0,0.1,0,0.2-0.1,0.3c-0.1,0.3-0.1,0.5-0.1,0.8v0.1       c0.1,0.2-0.1,0.5-0.3,0.5c0,0,0,0,0,0C19.2,29.4,19.1,29.4,19,29.4z" />
				</g>
			</g>
		</g>
		<g
   id="Group_17196">
			<g
   id="g10">
				<defs
   id="defs10">
					<rect
   id="SVGID_00000123432378358783036360000004670655204279159192_"
   x="-4.4"
   y="-1.3"
   width="85.9"
   height="97.9" />
				</defs>
				<clipPath
   id="SVGID_00000130613311100574432690000012436620736151997079_">
					<use
   xlink:href="#SVGID_00000123432378358783036360000004670655204279159192_"
   style="overflow:visible;"
   id="use10" />
				</clipPath>
				<g
   id="Group_17195"
   style="clip-path:url(#SVGID_00000130613311100574432690000012436620736151997079_);"
   clip-path="url(#SVGID_00000130613311100574432690000012436620736151997079_)">
					<path
   id="Path_11988"
   class="st3"
   d="M8,86.6l3.5,1.6l2.9-0.3l0-5.9l-6.8,2L8,86.6z" />
				</g>
			</g>
		</g>
		<g
   id="Group_17198">
			<g
   id="g11">
				<defs
   id="defs11">
					<rect
   id="SVGID_00000004528316674752530510000010855049833142724281_"
   x="-4.4"
   y="-1.3"
   width="85.9"
   height="97.9" />
				</defs>
				<clipPath
   id="SVGID_00000136397670805816407140000009194961942925455252_">
					<use
   xlink:href="#SVGID_00000004528316674752530510000010855049833142724281_"
   style="overflow:visible;"
   id="use11" />
				</clipPath>
				<g
   id="Group_17197"
   style="clip-path:url(#SVGID_00000136397670805816407140000009194961942925455252_);"
   clip-path="url(#SVGID_00000136397670805816407140000009194961942925455252_)">
					<path
   id="Path_11989"
   d="M6.9,83.6L7.5,87l3.9,1.7l3.5-0.9v-6.6L6.9,83.6z M13.8,82.6c0,1,0.1,4.1,0.1,4.8       c-0.6,0.1-2.1,0.3-2.3,0.3c-0.2-0.1-2.8-1.2-3.2-1.4c-0.1-0.4-0.3-1.4-0.4-2C8.8,84.1,12.8,82.9,13.8,82.6" />
				</g>
			</g>
		</g>
		<g
   id="Group_17200">
			<g
   id="g12">
				<defs
   id="defs12">
					<rect
   id="SVGID_00000119078470257046597500000014998375364280009875_"
   x="-4.4"
   y="-1.3"
   width="85.9"
   height="97.9" />
				</defs>
				<clipPath
   id="SVGID_00000109007608757839801780000005618745378937447347_">
					<use
   xlink:href="#SVGID_00000119078470257046597500000014998375364280009875_"
   style="overflow:visible;"
   id="use12" />
				</clipPath>
				<g
   id="Group_17199"
   style="clip-path:url(#SVGID_00000109007608757839801780000005618745378937447347_);"
   clip-path="url(#SVGID_00000109007608757839801780000005618745378937447347_)">
					<path
   id="Path_11990"
   d="M11.5,88.7L11.5,88.7l-4-1.7l0,0l-0.6-3.4l0,0l8.1-2.4v6.7l0,0L11.5,88.7z M7.6,86.9l3.9,1.7l3.4-0.8       v-6.5L7,83.6L7.6,86.9z M11.6,87.7L11.6,87.7l-0.8-0.4c-0.8-0.4-2.1-0.9-2.4-1l0,0l0,0c-0.1-0.4-0.3-1.4-0.4-2l0,0l0,0       c0.7-0.2,4.7-1.4,5.7-1.7l0.1,0v0.1l0,1.9c0,1.2,0,2.4,0.1,2.8v0l0,0c-0.3,0-1,0.1-1.5,0.2C12,87.6,11.7,87.6,11.6,87.7       L11.6,87.7z M8.5,86.2c0.3,0.1,1.5,0.7,2.3,1l0.8,0.3c0.1,0,0.4-0.1,0.8-0.1c0.5-0.1,1.1-0.2,1.5-0.2c0-0.4,0-1.7-0.1-2.8       l0-1.9c-1.1,0.3-4.9,1.5-5.6,1.7C8.2,84.9,8.4,85.8,8.5,86.2L8.5,86.2z" />
				</g>
			</g>
		</g>
		<g
   id="Group_17202">
			<g
   id="g13">
				<defs
   id="defs13">
					<rect
   id="SVGID_00000065785224163572877570000016258654991798562692_"
   x="-4.4"
   y="-1.3"
   width="85.9"
   height="97.9" />
				</defs>
				<clipPath
   id="SVGID_00000068638913117233318890000006257180227623604866_">
					<use
   xlink:href="#SVGID_00000065785224163572877570000016258654991798562692_"
   style="overflow:visible;"
   id="use13" />
				</clipPath>
				<g
   id="Group_17201"
   style="clip-path:url(#SVGID_00000068638913117233318890000006257180227623604866_);"
   clip-path="url(#SVGID_00000068638913117233318890000006257180227623604866_)">
					<path
   id="Path_11991"
   class="st3"
   d="M8.6,85.5c0,1.6,1.2,2.3,2.8,1.2c0.8-0.7,2.1-0.5,2.7,0.3c0.1,0.2,0.2,0.4,0.3,0.6       c0,1.2-0.9,2.1-2.1,2.1c-0.4,0-0.7-0.1-1.1-0.3c-4.5-2.2-11.4-5.1-14.6-3.8c0-0.4,2.8-5.3,7.4-5c-1.4-4.1-6.4-6.7-7.4-7       c2.7-1,7.7,0.7,11.9,2.6L8.6,85.5z" />
				</g>
			</g>
		</g>
		<g
   id="Group_17204">
			<g
   id="g14">
				<defs
   id="defs14">
					<rect
   id="SVGID_00000060020595402578509300000002394315304110078097_"
   x="-4.4"
   y="-1.3"
   width="85.9"
   height="97.9" />
				</defs>
				<clipPath
   id="SVGID_00000118369343346870260450000001796371523540147391_">
					<use
   xlink:href="#SVGID_00000060020595402578509300000002394315304110078097_"
   style="overflow:visible;"
   id="use14" />
				</clipPath>
				<g
   id="Group_17203"
   style="clip-path:url(#SVGID_00000118369343346870260450000001796371523540147391_);"
   clip-path="url(#SVGID_00000118369343346870260450000001796371523540147391_)">
					<path
   id="Path_11992"
   d="M-3.5,73.2c-0.2,0.1-0.3,0.3-0.3,0.5v0c0,0.2,0.1,0.4,0.3,0.5c0.8,0.3,5.2,2.5,6.8,6       c-2,0.2-3.9,1.1-5.3,2.6c-0.8,0.8-1.5,1.8-1.8,2.8v0c0,0.2,0.1,0.3,0.2,0.4c0.1,0.1,0.3,0.1,0.4,0c2.4-0.9,7.5,0.5,14.2,3.8       c0.9,0.5,2,0.4,2.8-0.2c0.7-0.5,1.1-1.4,1-2.2c-0.2-0.7-0.7-1.3-1.4-1.6c-0.8-0.3-1.7-0.2-2.4,0.3c-0.6,0.4-1.1,0.6-1.4,0.4       c-0.4-0.3-0.5-0.7-0.5-1.2l0-9.3c0-0.2-0.1-0.4-0.3-0.5C4.8,74-0.6,72.1-3.5,73.2 M8.1,76.6c0,0.6,0,9,0,9l0,0       c-0.1,0.8,0.3,1.6,1.1,2.1c0.9,0.4,1.9,0.2,2.5-0.5c0.4-0.3,0.9-0.4,1.4-0.2c0.4,0.1,0.7,0.4,0.8,0.8c0,0.5-0.2,0.9-0.6,1.2       c-0.5,0.4-1.2,0.4-1.8,0.1c-3.7-1.8-10.1-4.6-13.9-4.1c0.9-1.4,3.3-3.9,6.4-3.7c0.2,0,0.3-0.1,0.4-0.2c0.1-0.1,0.1-0.2,0.1-0.3       c0-0.1,0-0.1,0-0.2c-1.1-3.2-4.2-5.5-6.2-6.6C0.5,73.8,3.9,74.7,8.1,76.6" />
				</g>
			</g>
		</g>
		<g
   id="Group_17206">
			<g
   id="g15">
				<defs
   id="defs15">
					<rect
   id="SVGID_00000124126162164598935180000013086310271919242124_"
   x="-4.4"
   y="-1.3"
   width="85.9"
   height="97.9" />
				</defs>
				<clipPath
   id="SVGID_00000062907422563275193410000009771399429575799459_">
					<use
   xlink:href="#SVGID_00000124126162164598935180000013086310271919242124_"
   style="overflow:visible;"
   id="use15" />
				</clipPath>
				<g
   id="Group_17205"
   style="clip-path:url(#SVGID_00000062907422563275193410000009771399429575799459_);"
   clip-path="url(#SVGID_00000062907422563275193410000009771399429575799459_)">
					<path
   id="Path_11993"
   d="M12.4,90.3c-0.5,0-0.9-0.1-1.3-0.3c-6.7-3.3-11.8-4.7-14.2-3.8c-0.2,0.1-0.3,0-0.5,0       c-0.1-0.1-0.2-0.2-0.3-0.4v0c0.3-1.1,1-2.1,1.8-2.9c1.4-1.5,3.2-2.5,5.3-2.6c-1.6-3.5-5.9-5.7-6.7-6c-0.3-0.1-0.4-0.4-0.3-0.7       c0.1-0.2,0.2-0.3,0.3-0.3l0,0c2.9-1.1,8.3,0.8,12.4,2.6C9,75.8,9.1,76,9.1,76.2c0,2.2,0,9.3,0,9.3c-0.1,0.4,0.1,0.9,0.5,1.1       c0.3,0.2,0.8,0,1.4-0.4c0.7-0.5,1.6-0.7,2.5-0.3c0.7,0.3,1.3,0.9,1.5,1.6c0.1,0.9-0.3,1.7-1,2.3C13.5,90.1,12.9,90.3,12.4,90.3       z M-1.4,85.8c2.8,0,7.2,1.4,12.5,4.1c0.9,0.5,2,0.4,2.8-0.2c0.7-0.5,1.1-1.3,1-2.2c-0.2-0.7-0.7-1.3-1.4-1.6       c-0.8-0.3-1.7-0.2-2.4,0.3c-0.6,0.4-1.1,0.6-1.5,0.4C9.2,86.4,9,86,9.1,85.5c0,0,0-9.3,0-9.3c0-0.2-0.1-0.3-0.3-0.4       c-4-1.8-9.4-3.7-12.3-2.6l0,0c-0.2,0.1-0.3,0.2-0.3,0.4c0,0.2,0.1,0.4,0.3,0.4c0.8,0.3,5.2,2.5,6.8,6.1l0,0.1H3.2       c-2,0.2-3.9,1.1-5.3,2.6c-0.8,0.8-1.4,1.7-1.8,2.8v0c0,0.1,0.1,0.3,0.2,0.4c0.1,0.1,0.3,0.1,0.4,0C-2.6,85.9-2,85.8-1.4,85.8       L-1.4,85.8z M12.4,89.3c-0.3,0-0.6-0.1-0.9-0.2c-3.5-1.8-10-4.6-13.9-4.1l-0.1,0l0.1-0.1c0.4-0.6,2.6-3.7,6.1-3.7       c0.1,0,0.2,0,0.4,0c0.3,0,0.5-0.2,0.5-0.4c0,0,0,0,0,0c0-0.1,0-0.1,0-0.2c-1.2-3.5-4.7-5.8-6.2-6.6l-0.1-0.1l0.2,0       c0.1,0,0.2,0,0.3,0c2.2,0,5.5,0.9,9.5,2.7l0,0v0c0,0.6,0,8.8,0,9l0,0c-0.1,0.8,0.3,1.6,1,2c0.8,0.3,1.8,0.2,2.5-0.5       c0.4-0.3,1-0.4,1.5-0.2c0.4,0.1,0.7,0.5,0.8,0.9c0,0.5-0.2,1-0.7,1.2C13,89.2,12.7,89.3,12.4,89.3L12.4,89.3z M-1.4,84.8       c3.9,0,9.7,2.6,13,4.2c0.5,0.3,1.2,0.3,1.7-0.1c0.4-0.3,0.6-0.7,0.6-1.2c-0.1-0.4-0.4-0.7-0.8-0.8c-0.5-0.2-1-0.1-1.4,0.2       C11,87.8,10,88,9.1,87.6c-0.7-0.4-1.2-1.3-1.1-2.1l0,0c0,0,0-8.1,0-8.9c-4-1.7-7.2-2.7-9.5-2.7h-0.1c1.5,0.9,4.9,3.2,6.1,6.6       c0,0.1,0,0.1,0,0.2c0,0.1,0,0.2-0.1,0.3c-0.1,0.1-0.3,0.2-0.5,0.2c-0.1,0-0.2,0-0.4,0c-3.2,0-5.4,2.8-5.9,3.6       C-2,84.8-1.7,84.8-1.4,84.8L-1.4,84.8z" />
				</g>
			</g>
		</g>
		<g
   id="Group_17208">
			<g
   id="g16">
				<defs
   id="defs16">
					<rect
   id="SVGID_00000106131641924224631240000015978850072364192651_"
   x="-4.4"
   y="-1.3"
   width="85.9"
   height="97.9" />
				</defs>
				<clipPath
   id="SVGID_00000013171673657671960240000000394536944187801276_">
					<use
   xlink:href="#SVGID_00000106131641924224631240000015978850072364192651_"
   style="overflow:visible;"
   id="use16" />
				</clipPath>
				<g
   id="Group_17207"
   style="clip-path:url(#SVGID_00000013171673657671960240000000394536944187801276_);"
   clip-path="url(#SVGID_00000013171673657671960240000000394536944187801276_)">
					<path
   id="Path_11994"
   class="st3"
   d="M69.2,86.6l-3.6,1.5l-2.9-0.4l0.1-5.9l6.8,2.1L69.2,86.6z" />
				</g>
			</g>
		</g>
		<g
   id="Group_17210">
			<g
   id="g17">
				<defs
   id="defs17">
					<rect
   id="SVGID_00000168802366569732074460000015213931791127914148_"
   x="-4.4"
   y="-1.3"
   width="85.9"
   height="97.9" />
				</defs>
				<clipPath
   id="SVGID_00000125591931355429132920000000103116830144483998_">
					<use
   xlink:href="#SVGID_00000168802366569732074460000015213931791127914148_"
   style="overflow:visible;"
   id="use17" />
				</clipPath>
				<g
   id="Group_17209"
   style="clip-path:url(#SVGID_00000125591931355429132920000000103116830144483998_);"
   clip-path="url(#SVGID_00000125591931355429132920000000103116830144483998_)">
					<path
   id="Path_11995"
   d="M62.2,87.8l3.5,0.9l3.9-1.7l0.6-3.4l-8-2.4L62.2,87.8z M63.3,82.6c1,0.3,5,1.5,5.7,1.7       c-0.1,0.5-0.3,1.6-0.4,2c-0.4,0.2-3,1.3-3.2,1.4c-0.2,0-1.7-0.2-2.3-0.3C63.2,86.6,63.3,83.5,63.3,82.6" />
				</g>
			</g>
		</g>
		<g
   id="Group_17212">
			<g
   id="g18">
				<defs
   id="defs18">
					<rect
   id="SVGID_00000147212662007590234810000005504608986358201510_"
   x="-4.4"
   y="-1.3"
   width="85.9"
   height="97.9" />
				</defs>
				<clipPath
   id="SVGID_00000007390300843682048990000008198105637668532914_">
					<use
   xlink:href="#SVGID_00000147212662007590234810000005504608986358201510_"
   style="overflow:visible;"
   id="use18" />
				</clipPath>
				<g
   id="Group_17211"
   style="clip-path:url(#SVGID_00000007390300843682048990000008198105637668532914_);"
   clip-path="url(#SVGID_00000007390300843682048990000008198105637668532914_)">
					<path
   id="Path_11996"
   d="M65.7,88.7L65.7,88.7l-3.5-0.9l0-0.1l0-6.6l0.1,0l8.1,2.4l0,0L69.7,87l0,0L65.7,88.7z M62.2,87.8       l3.4,0.9l3.9-1.7l0.6-3.3l-7.9-2.4L62.2,87.8z M65.5,87.7l-0.6-0.1c-0.5-0.1-1.3-0.2-1.7-0.2l0,0l0-1.6c0-1.2,0.1-2.6,0.1-3.2       v-0.1l0.1,0c1,0.3,5,1.5,5.7,1.7l0,0l0,0C69,84.6,69,85,68.9,85.4c-0.1,0.4-0.1,0.7-0.2,0.9l0,0l0,0l-1.3,0.6       C66.6,87.2,65.7,87.6,65.5,87.7L65.5,87.7z M63.3,87.3c0.4,0.1,1.1,0.2,1.7,0.2l0.6,0.1c0.2-0.1,1-0.4,1.8-0.8l1.3-0.6       c0-0.2,0.1-0.5,0.2-0.8c0.1-0.4,0.1-0.8,0.2-1.1c-0.8-0.2-4.6-1.4-5.6-1.7c0,0.6,0,2-0.1,3.1L63.3,87.3z" />
				</g>
			</g>
		</g>
		<g
   id="Group_17214">
			<g
   id="g19">
				<defs
   id="defs19">
					<rect
   id="SVGID_00000116947462352104259050000013202479293404996744_"
   x="-4.4"
   y="-1.3"
   width="85.9"
   height="97.9" />
				</defs>
				<clipPath
   id="SVGID_00000086667441993886770130000000681173429206461318_">
					<use
   xlink:href="#SVGID_00000116947462352104259050000013202479293404996744_"
   style="overflow:visible;"
   id="use19" />
				</clipPath>
				<g
   id="Group_17213"
   style="clip-path:url(#SVGID_00000086667441993886770130000000681173429206461318_);"
   clip-path="url(#SVGID_00000086667441993886770130000000681173429206461318_)">
					<path
   id="Path_11997"
   class="st3"
   d="M68.5,85.5c0,1.6-1.2,2.3-2.8,1.2c-0.8-0.7-2.1-0.5-2.7,0.3c-0.1,0.2-0.2,0.4-0.3,0.6       c0,1.2,0.9,2.1,2.1,2.1c0.4,0,0.8-0.1,1.1-0.3c4.5-2.2,11.4-5.1,14.6-3.8c0-0.4-2.8-5.3-7.4-5c1.4-4.1,6.4-6.7,7.4-7       c-2.7-1-7.7,0.7-11.9,2.6L68.5,85.5z" />
				</g>
			</g>
		</g>
		<g
   id="Group_17216">
			<g
   id="g20">
				<defs
   id="defs20">
					<rect
   id="SVGID_00000078765217023426434620000011070208834315398540_"
   x="-4.4"
   y="-1.3"
   width="85.9"
   height="97.9" />
				</defs>
				<clipPath
   id="SVGID_00000055666684519113878630000004477427622770498727_">
					<use
   xlink:href="#SVGID_00000078765217023426434620000011070208834315398540_"
   style="overflow:visible;"
   id="use20" />
				</clipPath>
				<g
   id="Group_17215"
   style="clip-path:url(#SVGID_00000055666684519113878630000004477427622770498727_);"
   clip-path="url(#SVGID_00000055666684519113878630000004477427622770498727_)">
					<path
   id="Path_11998"
   d="M68.3,75.8C68.2,75.8,68,76,68,76.2l0,9.3c0.1,0.4-0.1,0.9-0.5,1.2c-0.3,0.2-0.9,0-1.4-0.4       c-0.7-0.5-1.6-0.7-2.4-0.3c-0.7,0.3-1.3,0.9-1.4,1.6c-0.1,0.9,0.3,1.7,1,2.2c0.8,0.6,1.9,0.7,2.8,0.2       c6.7-3.3,11.9-4.7,14.2-3.8c0.1,0.1,0.3,0,0.4,0c0.1-0.1,0.2-0.2,0.2-0.4v0c-0.4-1.1-1-2.1-1.8-2.8c-1.4-1.5-3.3-2.5-5.3-2.6       c1.6-3.5,5.9-5.7,6.8-6c0.2-0.1,0.3-0.3,0.3-0.5v0c0-0.2-0.1-0.4-0.3-0.5C77.8,72.1,72.4,74,68.3,75.8 M78.9,73.9       c-2,1.1-5.1,3.4-6.2,6.6c0,0.1,0,0.1,0,0.2c0,0.1,0,0.2,0.1,0.3c0.1,0.1,0.3,0.2,0.4,0.2c3.1-0.2,5.5,2.3,6.4,3.7       c-3.8-0.5-10.2,2.3-13.9,4.1c-0.5,0.3-1.2,0.3-1.8-0.1c-0.4-0.3-0.6-0.7-0.6-1.2c0.1-0.4,0.4-0.7,0.8-0.8       c0.5-0.2,1-0.1,1.4,0.2c0.7,0.6,1.7,0.8,2.5,0.5c0.7-0.4,1.1-1.2,1.1-2.1l0,0c0,0,0-8.3,0-9C73.3,74.7,76.6,73.8,78.9,73.9" />
				</g>
			</g>
		</g>
		<g
   id="Group_17218">
			<g
   id="g21">
				<defs
   id="defs21">
					<rect
   id="SVGID_00000118388736738947334250000004973920481569698446_"
   x="-4.4"
   y="-1.3"
   width="85.9"
   height="97.9" />
				</defs>
				<clipPath
   id="SVGID_00000091709290580360394970000014114796494909379512_">
					<use
   xlink:href="#SVGID_00000118388736738947334250000004973920481569698446_"
   style="overflow:visible;"
   id="use21" />
				</clipPath>
				<g
   id="Group_17217"
   style="clip-path:url(#SVGID_00000091709290580360394970000014114796494909379512_);"
   clip-path="url(#SVGID_00000091709290580360394970000014114796494909379512_)">
					<path
   id="Path_11999"
   d="M64.8,90.3c-1.5,0-2.6-1.2-2.6-2.7c0,0,0-0.1,0-0.1c0.2-0.7,0.7-1.4,1.5-1.6c0.8-0.3,1.7-0.2,2.5,0.3       c0.6,0.4,1.1,0.6,1.4,0.4c0.3-0.3,0.5-0.7,0.5-1.1l0-9.3c0-0.2,0.1-0.4,0.3-0.5c4-1.8,9.4-3.7,12.4-2.6       c0.2,0.1,0.4,0.3,0.4,0.5c0,0.2-0.1,0.4-0.4,0.5c-0.8,0.3-5.1,2.4-6.7,6c2,0.2,3.9,1.1,5.3,2.6c0.8,0.8,1.5,1.8,1.8,2.9v0.1       c0,0.2-0.1,0.3-0.3,0.4c-0.1,0.1-0.3,0.1-0.5,0c-2.4-0.9-7.5,0.5-14.2,3.8C65.7,90.2,65.2,90.3,64.8,90.3z M64.6,85.8       c-0.3,0-0.6,0.1-0.9,0.2c-0.7,0.2-1.2,0.8-1.4,1.5c-0.1,0.9,0.3,1.7,1,2.2c0.8,0.6,1.9,0.7,2.8,0.2c6.7-3.3,11.9-4.7,14.3-3.8       c0.2,0.1,0.5,0,0.6-0.3c0,0,0-0.1,0-0.1v0c-0.4-1.1-1-2-1.8-2.8c-1.4-1.5-3.3-2.4-5.3-2.6h-0.1l0-0.1c1.6-3.6,6-5.8,6.8-6.1       c0.2-0.1,0.3-0.2,0.3-0.4c0-0.2-0.1-0.4-0.3-0.4c-2.9-1.1-8.3,0.8-12.3,2.6l0,0c-0.2,0.1-0.3,0.2-0.3,0.4l0,9.3       c0.1,0.5-0.1,0.9-0.5,1.2c-0.4,0.2-0.9,0-1.5-0.4C65.6,86,65.1,85.8,64.6,85.8L64.6,85.8z M64.8,89.3c-0.3,0-0.7-0.1-0.9-0.3       c-0.4-0.3-0.7-0.7-0.7-1.2c0.1-0.4,0.4-0.7,0.8-0.9c0.5-0.2,1-0.1,1.5,0.2c0.7,0.6,1.6,0.8,2.5,0.5c0.7-0.4,1.1-1.2,1-2l0,0       c0-0.2,0-8.3,0-9v0l0,0c4-1.8,7.3-2.7,9.5-2.7c0.1,0,0.2,0,0.3,0l0.2,0l-0.1,0.1c-1.5,0.8-5,3.1-6.2,6.6c0,0.1,0,0.3,0.1,0.4       c0.1,0.1,0.2,0.2,0.4,0.2c0.1,0,0.3,0,0.4,0c3.4,0,5.6,3.1,6.1,3.7l0.1,0.1l-0.1,0c-3.9-0.5-10.4,2.4-13.9,4.1       C65.4,89.2,65.1,89.3,64.8,89.3L64.8,89.3z M64.6,86.8c-0.2,0-0.4,0-0.5,0.1c-0.4,0.1-0.7,0.4-0.8,0.8c0,0.5,0.2,0.9,0.6,1.2       c0.5,0.4,1.2,0.4,1.7,0.1c3.5-1.7,10-4.6,13.9-4.1c-1.3-2.1-3.5-3.5-6-3.6c-0.1,0-0.2,0-0.3,0h0c-0.2,0-0.3-0.1-0.4-0.2       c-0.1-0.1-0.1-0.2-0.1-0.3c0-0.1,0-0.1,0-0.2c1.1-3.4,4.5-5.7,6.1-6.6h-0.1c-2.2,0-5.5,0.9-9.5,2.7c0,0.8,0,8.9,0,8.9       c0.1,0.8-0.3,1.7-1.1,2.1c-0.9,0.4-1.9,0.2-2.6-0.5C65.2,86.9,64.9,86.8,64.6,86.8L64.6,86.8z" />
				</g>
			</g>
		</g>
		<g
   id="Group_17220">
			<g
   id="g22">
				<defs
   id="defs22">
					<rect
   id="SVGID_00000133514226510287950800000003056763207460998537_"
   x="-4.4"
   y="-1.3"
   width="85.9"
   height="97.9" />
				</defs>
				<clipPath
   id="SVGID_00000018194602245422424490000002561158936687920830_">
					<use
   xlink:href="#SVGID_00000133514226510287950800000003056763207460998537_"
   style="overflow:visible;"
   id="use22" />
				</clipPath>
				<g
   id="Group_17219"
   style="clip-path:url(#SVGID_00000018194602245422424490000002561158936687920830_);"
   clip-path="url(#SVGID_00000018194602245422424490000002561158936687920830_)">
					<path
   id="Path_12000"
   class="st3"
   d="M8.7,85.8c0-1.6,1.8-2.9,4.1-2.9l25.9,0l25.9,0c2.3,0,4.1,1.3,4.1,2.9l0-11.9       c0-1.6-1.8-2.9-4.1-2.9H12.7c-2.3,0-4.1,1.3-4.1,2.9L8.7,85.8z" />
				</g>
			</g>
		</g>
		<g
   id="Group_17222">
			<g
   id="g23">
				<defs
   id="defs23">
					<rect
   id="SVGID_00000061468521086468061370000017159412288397818535_"
   x="-4.4"
   y="-1.3"
   width="85.9"
   height="97.9" />
				</defs>
				<clipPath
   id="SVGID_00000142859400851900662080000015279326182052323468_">
					<use
   xlink:href="#SVGID_00000061468521086468061370000017159412288397818535_"
   style="overflow:visible;"
   id="use23" />
				</clipPath>
				<g
   id="Group_17221"
   style="clip-path:url(#SVGID_00000142859400851900662080000015279326182052323468_);"
   clip-path="url(#SVGID_00000142859400851900662080000015279326182052323468_)">
					<path
   id="Path_12001"
   d="M12.7,70.5c-2.5,0-4.6,1.5-4.6,3.4l0,12h1c0-1.3,1.6-2.4,3.6-2.4l25.9,0l25.9,0c1.9,0,3.6,1.1,3.6,2.4       h1l0-11.9c0-1.9-2.1-3.4-4.6-3.4H38.6L12.7,70.5z M9.2,73.9c0-1.3,1.6-2.4,3.6-2.4h51.8c1.9,0,3.6,1.1,3.6,2.4c0,0,0,7,0,9.9       c-1-0.9-2.3-1.3-3.6-1.3l-25.9,0l-25.9,0c-1.3,0-2.6,0.4-3.6,1.3C9.2,80.9,9.2,73.9,9.2,73.9" />
				</g>
			</g>
		</g>
		<g
   id="Group_17224">
			<g
   id="g24">
				<defs
   id="defs24">
					<rect
   id="SVGID_00000120534838572732024800000006974797663813132221_"
   x="-4.4"
   y="-1.3"
   width="85.9"
   height="97.9" />
				</defs>
				<clipPath
   id="SVGID_00000123435555143717035760000014874176837063419833_">
					<use
   xlink:href="#SVGID_00000120534838572732024800000006974797663813132221_"
   style="overflow:visible;"
   id="use24" />
				</clipPath>
				<g
   id="Group_17223"
   style="clip-path:url(#SVGID_00000123435555143717035760000014874176837063419833_);"
   clip-path="url(#SVGID_00000123435555143717035760000014874176837063419833_)">
					<path
   id="Path_12002"
   d="M69.1,85.8H68v0c0-1.3-1.6-2.3-3.5-2.3l-25.9,0l-25.9,0c-1.9,0-3.5,1.1-3.5,2.3v0H8.1v0       c0-1.2,0-11.9,0-12c0-1.9,2.1-3.4,4.6-3.4h51.8c2.6,0,4.6,1.5,4.6,3.4L69.1,85.8z M38.6,70.5H12.7c-2.5,0-4.6,1.5-4.6,3.3       c0,0,0,11.1,0,11.9h0.9c0-1.3,1.7-2.4,3.6-2.4l25.9,0l25.9,0c1.9,0,3.6,1.1,3.6,2.4H69l0-11.9c0-1.8-2-3.3-4.6-3.3L38.6,70.5z        M68.1,83.8L68.1,83.8c-1.1-0.9-2.3-1.4-3.6-1.3l-25.9,0l-25.9,0c-1.3,0-2.6,0.4-3.5,1.3l-0.1,0.1v-0.1l0-9.9       c0-1.3,1.7-2.4,3.6-2.4h51.8c2,0,3.6,1.1,3.6,2.4L68.1,83.8z M64.5,82.4c1.3,0,2.5,0.4,3.5,1.2l0-9.8c0-1.3-1.6-2.3-3.5-2.3       H12.7c-1.9,0-3.5,1.1-3.5,2.3l0,9.8c1-0.8,2.2-1.3,3.5-1.2l25.9,0L64.5,82.4z" />
				</g>
			</g>
		</g>
		<g
   id="Group_17226">
			<g
   id="g25">
				<defs
   id="defs25">
					<rect
   id="SVGID_00000183207781493870769680000003520691775525841567_"
   x="-4.4"
   y="-1.3"
   width="85.9"
   height="97.9" />
				</defs>
				<clipPath
   id="SVGID_00000061452152307392638840000005582610443389531058_">
					<use
   xlink:href="#SVGID_00000183207781493870769680000003520691775525841567_"
   style="overflow:visible;"
   id="use25" />
				</clipPath>
				<g
   id="Group_17225"
   style="clip-path:url(#SVGID_00000061452152307392638840000005582610443389531058_);"
   clip-path="url(#SVGID_00000061452152307392638840000005582610443389531058_)">
					<path
   id="Path_12003"
   class="st1"
   d="M17.6,78.2C17.5,78.2,17.5,78.2,17.6,78.2l-0.7,1.6c-0.1,0.2-0.1,0.4-0.2,0.6       c0,0.2,0.1,0.3,0.4,0.3h0.2c0.1,0,0.2,0,0.2,0.1c0,0.1-0.1,0.1-0.2,0.1c-0.3,0-0.8,0-1.1,0c-0.1,0-0.7,0-1.3,0       c-0.1,0-0.2,0-0.2-0.1c0-0.1,0-0.1,0.1-0.1c0.1,0,0.2,0,0.3,0c0.5-0.1,0.7-0.4,0.9-1l2.7-6.7c0.1-0.3,0.2-0.4,0.3-0.4       c0.1,0,0.2,0.1,0.3,0.3c0.3,0.6,2,4.9,2.6,6.5c0.4,1,0.7,1.1,0.9,1.2c0.1,0,0.3,0,0.4,0c0.1,0,0.1,0,0.1,0.1S23.4,81,23,81       c-0.4,0-1.2,0-2,0c-0.2,0-0.3,0-0.3-0.1c0-0.1,0-0.1,0.2-0.1c0.1,0,0.1-0.1,0.1-0.2c0,0,0,0,0,0L20,78.3c0,0-0.1-0.1-0.1-0.1       L17.6,78.2L17.6,78.2z M19.7,77.7C19.8,77.7,19.8,77.7,19.7,77.7L18.8,75c0,0,0-0.1-0.1-0.1S18.7,75,18.7,75l-1,2.6       c0,0,0,0.1,0,0.1L19.7,77.7z" />
				</g>
			</g>
		</g>
		<g
   id="Group_17228">
			<g
   id="g26">
				<defs
   id="defs26">
					<rect
   id="SVGID_00000123441342499911997960000015645541183213746567_"
   x="-4.4"
   y="-1.3"
   width="85.9"
   height="97.9" />
				</defs>
				<clipPath
   id="SVGID_00000013183523371333684460000001227891654659824022_">
					<use
   xlink:href="#SVGID_00000123441342499911997960000015645541183213746567_"
   style="overflow:visible;"
   id="use26" />
				</clipPath>
				<g
   id="Group_17227"
   style="clip-path:url(#SVGID_00000013183523371333684460000001227891654659824022_);"
   clip-path="url(#SVGID_00000013183523371333684460000001227891654659824022_)">
					<path
   id="Path_12004"
   class="st1"
   d="M28,77c0-2.3,1.8-4.1,4-4.2c0.1,0,0.3,0,0.4,0c2.6,0,4.3,1.5,4.3,4c0.1,2.3-1.7,4.3-4,4.4       c-0.1,0-0.2,0-0.4,0c-2.2,0.1-4.2-1.6-4.3-3.8C28,77.2,28,77.1,28,77 M35.2,77.2c0-2.4-1.4-3.9-3.1-3.9c-1.2,0-2.6,0.7-2.6,3.3       c0,2.2,1.2,4,3.3,4C33.5,80.6,35.2,80.2,35.2,77.2" />
				</g>
			</g>
		</g>
		<g
   id="Group_17230">
			<g
   id="g27">
				<defs
   id="defs27">
					<rect
   id="SVGID_00000111154298046170679870000010584224775561262739_"
   x="-4.4"
   y="-1.3"
   width="85.9"
   height="97.9" />
				</defs>
				<clipPath
   id="SVGID_00000033360381128130078660000015425120636507690912_">
					<use
   xlink:href="#SVGID_00000111154298046170679870000010584224775561262739_"
   style="overflow:visible;"
   id="use27" />
				</clipPath>
				<g
   id="Group_17229"
   style="clip-path:url(#SVGID_00000033360381128130078660000015425120636507690912_);"
   clip-path="url(#SVGID_00000033360381128130078660000015425120636507690912_)">
					<path
   id="Path_12005"
   class="st1"
   d="M43.2,80.9C43,80.8,43,80.7,43,80.5c0-0.6,0-1.2,0.1-1.4s0-0.3,0.1-0.3s0.1,0.1,0.1,0.2       c0,0.2,0,0.4,0.1,0.5c0.2,0.7,0.8,1.1,1.5,1.1c0.7,0.1,1.3-0.4,1.4-1.1c0,0,0,0,0-0.1c0-0.5-0.2-1-1-1.7l-0.5-0.4       c-1.2-0.9-1.6-1.7-1.6-2.5c0-1.2,1-2,2.5-2c0.5,0,1,0.1,1.4,0.2c0.1,0,0.2,0.1,0.2,0.1c0,0.1,0,0.4,0,1.3c0,0.2,0,0.3-0.1,0.3       S47,74.6,47,74.5c0-0.3-0.1-0.5-0.3-0.7c-0.3-0.4-0.7-0.6-1.2-0.5c-0.6-0.1-1.2,0.4-1.3,1c0,0,0,0.1,0,0.1       c0,0.5,0.2,0.9,1.1,1.5l0.3,0.2c1.3,1,1.7,1.7,1.7,2.7c0,0.7-0.4,1.4-1,1.8c-0.5,0.3-1.1,0.5-1.7,0.4       C44.3,81.2,43.7,81.1,43.2,80.9" />
				</g>
			</g>
		</g>
		<g
   id="Group_17232">
			<g
   id="g28">
				<defs
   id="defs28">
					<rect
   id="SVGID_00000044139185644508563850000013589233879408878221_"
   x="-4.4"
   y="-1.3"
   width="85.9"
   height="97.9" />
				</defs>
				<clipPath
   id="SVGID_00000061454762459619742230000007269724313201170840_">
					<use
   xlink:href="#SVGID_00000044139185644508563850000013589233879408878221_"
   style="overflow:visible;"
   id="use28" />
				</clipPath>
				<g
   id="Group_17231"
   style="clip-path:url(#SVGID_00000061454762459619742230000007269724313201170840_);"
   clip-path="url(#SVGID_00000061454762459619742230000007269724313201170840_)">
					<path
   id="Path_12006"
   class="st1"
   d="M54.4,76c0-1.6,0-1.9,0-2.3c0-0.4-0.1-0.5-0.5-0.6c-0.1,0-0.3,0-0.4,0       c-0.1,0-0.2,0-0.2-0.1s0.1-0.1,0.2-0.1c0.6,0,1.2,0,1.5,0c0.4,0,1.2,0,1.5,0c0.7,0,1.4,0.1,2,0.5c0.5,0.3,0.7,0.9,0.7,1.5       c-0.1,1-0.6,1.9-1.4,2.4c0.9,1.2,1.7,2.1,2.3,2.8c0.3,0.4,0.7,0.6,1.2,0.7c0.1,0,0.2,0,0.3,0c0.1,0,0.1,0,0.1,0.1       c0,0.1-0.1,0.1-0.2,0.1h-1c-0.4,0-0.8,0-1.1-0.2c-0.6-0.4-1.1-0.9-1.5-1.6c-0.4-0.6-0.9-1.3-1.1-1.5c0-0.1-0.1-0.1-0.2-0.1       l-0.9,0c0,0-0.1,0-0.1,0.1c0,0,0,0,0,0v0.2c0,1,0,1.8,0.1,2.3c0,0.3,0.1,0.5,0.4,0.6c0.2,0,0.3,0,0.5,0c0.1,0,0.1,0,0.1,0.1       c0,0.1-0.1,0.1-0.2,0.1c-0.6,0-1.4,0-1.6,0c-0.2,0-0.9,0-1.3,0c-0.1,0-0.2,0-0.2-0.1c0-0.1,0-0.1,0.2-0.1c0.1,0,0.3,0,0.4,0       c0.2,0,0.3-0.3,0.3-0.6c0.1-0.4,0.1-1.3,0.1-2.3L54.4,76L54.4,76L54.4,76z M55.7,76.9c0,0.1,0,0.2,0.1,0.2       c0.3,0.1,0.5,0.1,0.8,0.1c0.3,0,0.5,0,0.8-0.2c0.5-0.4,0.7-1,0.6-1.6c0.1-0.9-0.5-1.8-1.4-1.9c-0.1,0-0.1,0-0.2,0       c-0.2,0-0.4,0-0.6,0c-0.1,0-0.1,0.1-0.1,0.2L55.7,76.9z" />
				</g>
			</g>
		</g>
	</g>
	<g
   id="Group_17234"
   transform="translate(27.897 77.401)">
		<path
   id="Path_12007"
   class="st1"
   d="M-4.4,0l1.3-1.3L-1.9,0l-1.3,1.3L-4.4,0z" />
	</g>
	<g
   id="Group_17235"
   transform="translate(53.511 77.401)">
		<path
   id="Path_12008"
   class="st1"
   d="M-4.4,0l1.3-1.3L-1.9,0l-1.3,1.3L-4.4,0z" />
	</g>
	<g
   id="Group_17236"
   transform="translate(42.699 77.401)">
		<path
   id="Path_12009"
   class="st1"
   d="M-4.4,0l1.3-1.3L-1.9,0l-1.3,1.3L-4.4,0z" />
	</g>
	<g
   id="Group_17297">
		<g
   id="Group_17238">
			<g
   id="g29">
				<defs
   id="defs29">
					<rect
   id="SVGID_00000001639501915261449960000004674399823656598953_"
   x="-4.4"
   y="-1.3"
   width="85.9"
   height="97.9" />
				</defs>
				<clipPath
   id="SVGID_00000049190642450399303030000002716322421617205419_">
					<use
   xlink:href="#SVGID_00000001639501915261449960000004674399823656598953_"
   style="overflow:visible;"
   id="use29" />
				</clipPath>
				<g
   id="Group_17237"
   style="clip-path:url(#SVGID_00000049190642450399303030000002716322421617205419_);"
   clip-path="url(#SVGID_00000049190642450399303030000002716322421617205419_)">
					<path
   id="Path_12010"
   class="st31"
   d="M27.6,23.1c0,0-0.1,0.1-0.1,0.1c0,0,0,0,0,0l0.1,0.3l0.1,0.2l0.2,0.3c0,0,0-0.1,0-0.1       c0,0,0,0,0,0c0,0,0.1,0,0.1,0c0,0,0,0,0,0l-0.2-0.3l-0.1-0.2l-0.1-0.3C27.7,23.1,27.7,23,27.6,23.1" />
				</g>
			</g>
		</g>
		<g
   id="Group_17240">
			<g
   id="g30">
				<defs
   id="defs30">
					<rect
   id="SVGID_00000018939489068104478060000002647602058529511601_"
   x="-4.4"
   y="-1.3"
   width="85.9"
   height="97.9" />
				</defs>
				<clipPath
   id="SVGID_00000083068209066699872400000005674895439331871658_">
					<use
   xlink:href="#SVGID_00000018939489068104478060000002647602058529511601_"
   style="overflow:visible;"
   id="use30" />
				</clipPath>
				<g
   id="Group_17239"
   style="clip-path:url(#SVGID_00000083068209066699872400000005674895439331871658_);"
   clip-path="url(#SVGID_00000083068209066699872400000005674895439331871658_)">
					<path
   id="Path_12011"
   class="st31"
   d="M24.4,25.8c-0.1,0-0.1,0-0.1,0.1c0,0.1,0,0.1,0.1,0.1c0,0,0,0,0.1,0       c0.3,0,0.7,0.6,0.7,0.9c0,0,0.1,0.1,0.1,0.1c0,0,0,0,0,0c0,0,0.1,0,0.1-0.1c0,0,0,0,0,0C25.3,26.5,24.8,25.7,24.4,25.8" />
				</g>
			</g>
		</g>
		<g
   id="Group_17242">
			<g
   id="g31">
				<defs
   id="defs31">
					<rect
   id="SVGID_00000013888977395132759310000011428528427168440467_"
   x="-4.4"
   y="-1.3"
   width="85.9"
   height="97.9" />
				</defs>
				<clipPath
   id="SVGID_00000047747775879646682210000006422927558574940601_">
					<use
   xlink:href="#SVGID_00000013888977395132759310000011428528427168440467_"
   style="overflow:visible;"
   id="use31" />
				</clipPath>
				<g
   id="Group_17241"
   style="clip-path:url(#SVGID_00000047747775879646682210000006422927558574940601_);"
   clip-path="url(#SVGID_00000047747775879646682210000006422927558574940601_)">
					<path
   id="Path_12012"
   class="st31"
   d="M24.4,26.5c0,0-0.1,0.1,0,0.1c0,0,0,0,0,0l0.1,0.2l0.2,0.3l0,0l0.3,0.3l0.1,0.2       c0.1,0.2,0.2,0.4,0.4,0.6c0,0,0.1,0,0.1,0c0,0,0-0.1,0-0.1c0,0,0,0,0,0c-0.2-0.1-0.3-0.3-0.4-0.5l-0.1-0.2L24.8,27l0,0       l-0.1-0.2l-0.1-0.2C24.5,26.5,24.4,26.5,24.4,26.5" />
				</g>
			</g>
		</g>
		<g
   id="Group_17244">
			<g
   id="g32">
				<defs
   id="defs32">
					<rect
   id="SVGID_00000103955472549714275120000009352939290073032106_"
   x="-4.4"
   y="-1.3"
   width="85.9"
   height="97.9" />
				</defs>
				<clipPath
   id="SVGID_00000113354671566871623530000004041519842510201509_">
					<use
   xlink:href="#SVGID_00000103955472549714275120000009352939290073032106_"
   style="overflow:visible;"
   id="use32" />
				</clipPath>
				<g
   id="Group_17243"
   style="clip-path:url(#SVGID_00000113354671566871623530000004041519842510201509_);"
   clip-path="url(#SVGID_00000113354671566871623530000004041519842510201509_)">
					<path
   id="Path_12013"
   class="st31"
   d="M26.5,27.4c0,0.1,0,0.1,0.1,0.1c0,0,0.1,0,0.1-0.1c0.1-0.3,0.7-0.8,0.9-0.8       c0.1,0,0.1,0,0.1-0.1c0-0.1,0-0.1-0.1-0.1c0,0,0,0-0.1,0C27.2,26.4,26.6,27.1,26.5,27.4" />
				</g>
			</g>
		</g>
		<g
   id="Group_17246">
			<g
   id="g33">
				<defs
   id="defs33">
					<rect
   id="SVGID_00000018202161367684427740000000951658659740777659_"
   x="-4.4"
   y="-1.3"
   width="85.9"
   height="97.9" />
				</defs>
				<clipPath
   id="SVGID_00000180352524862518686120000014189861385869062813_">
					<use
   xlink:href="#SVGID_00000018202161367684427740000000951658659740777659_"
   style="overflow:visible;"
   id="use33" />
				</clipPath>
				<g
   id="Group_17245"
   style="clip-path:url(#SVGID_00000180352524862518686120000014189861385869062813_);"
   clip-path="url(#SVGID_00000180352524862518686120000014189861385869062813_)">
					<path
   id="Path_12014"
   class="st31"
   d="M29.9,28.1c0,0-0.1,0.1-0.1,0.1c0.1,0.1,0,0.2,0,0.3c0,0,0,0.1,0,0.1c0,0,0.1,0,0.1,0       c0,0,0,0,0,0c0.1-0.2,0.1-0.4,0-0.5C30,28.1,30,28.1,29.9,28.1C29.9,28.1,29.9,28.1,29.9,28.1" />
				</g>
			</g>
		</g>
		<g
   id="Group_17248">
			<g
   id="g34">
				<defs
   id="defs34">
					<rect
   id="SVGID_00000034778474941508728050000015381857617955725501_"
   x="-4.4"
   y="-1.3"
   width="85.9"
   height="97.9" />
				</defs>
				<clipPath
   id="SVGID_00000172402888410748860800000003237850456851772593_">
					<use
   xlink:href="#SVGID_00000034778474941508728050000015381857617955725501_"
   style="overflow:visible;"
   id="use34" />
				</clipPath>
				<g
   id="Group_17247"
   style="clip-path:url(#SVGID_00000172402888410748860800000003237850456851772593_);"
   clip-path="url(#SVGID_00000172402888410748860800000003237850456851772593_)">
					<path
   id="Path_12015"
   class="st31"
   d="M25.5,22.8c0,0-0.1,0.1,0,0.1c0,0,0,0,0,0c0.1,0.2,0.3,0.3,0.4,0.3       c0.2,0,0.4-0.1,0.5-0.2c0,0,0-0.1,0-0.1c0,0-0.1,0-0.1,0c0,0,0,0,0,0c-0.1,0.1-0.2,0.2-0.3,0.1c-0.1,0-0.2-0.1-0.3-0.2       C25.6,22.8,25.6,22.7,25.5,22.8C25.5,22.8,25.5,22.8,25.5,22.8" />
				</g>
			</g>
		</g>
		<g
   id="Group_17250">
			<g
   id="g35">
				<defs
   id="defs35">
					<rect
   id="SVGID_00000005228215518357893440000005185026107699087243_"
   x="-4.4"
   y="-1.3"
   width="85.9"
   height="97.9" />
				</defs>
				<clipPath
   id="SVGID_00000031200122706180415170000017374607455091131280_">
					<use
   xlink:href="#SVGID_00000005228215518357893440000005185026107699087243_"
   style="overflow:visible;"
   id="use35" />
				</clipPath>
				<g
   id="Group_17249"
   style="clip-path:url(#SVGID_00000031200122706180415170000017374607455091131280_);"
   clip-path="url(#SVGID_00000031200122706180415170000017374607455091131280_)">
					<path
   id="Path_12016"
   class="st31"
   d="M33,22.1L33,22.1c-0.1,0-0.2,0-0.2,0.1l-0.1,0.2c0,0,0,0.3,0,0.3l0,0.1       c0,0.2,0,0.5,0.2,0.7l0.1,0.2l0.1,0.2l0.1,0.2v0.1c0,0.3,0.1,0.5,0.3,0.6c0,0,0.1,0,0.1,0c0,0,0-0.1,0-0.1c0,0,0,0,0,0       c-0.2-0.1-0.3-0.3-0.3-0.5l0-0.1l-0.1-0.3l-0.1-0.1l-0.2-0.3c-0.1-0.2-0.2-0.4-0.2-0.5l0-0.1l0.1-0.3v0l0-0.1c0,0,0.1,0,0.1,0       c0.1,0,0.1,0,0.2,0.1c0,0,0.2,0.3,0.2,0.3l0,0.2l0,0.2c0,0.1,0.1,0.3,0.3,0.4c0,0,0.1,0,0.1,0c0,0,0,0,0,0c0,0,0-0.1-0.1-0.1       c-0.1,0-0.2-0.2-0.2-0.3l0-0.4l-0.2-0.4C33.2,22.1,33.2,22.1,33,22.1" />
				</g>
			</g>
		</g>
		<g
   id="Group_17252">
			<g
   id="g36">
				<defs
   id="defs36">
					<rect
   id="SVGID_00000036252739659576111030000011621632078361077130_"
   x="-4.4"
   y="-1.3"
   width="85.9"
   height="97.9" />
				</defs>
				<clipPath
   id="SVGID_00000121962915931655627820000013073700630838107291_">
					<use
   xlink:href="#SVGID_00000036252739659576111030000011621632078361077130_"
   style="overflow:visible;"
   id="use36" />
				</clipPath>
				<g
   id="Group_17251"
   style="clip-path:url(#SVGID_00000121962915931655627820000013073700630838107291_);"
   clip-path="url(#SVGID_00000121962915931655627820000013073700630838107291_)">
					<path
   id="Path_12017"
   class="st31"
   d="M32.3,21.6c-0.3,0.2-0.6,0.2-0.9,0c0,0-0.1,0-0.1,0c0,0,0,0,0,0c0,0,0,0.1,0,0.1       c0,0,0,0,0,0c0.3,0.2,0.7,0.2,1.1,0c0,0,0.1-0.1,0-0.1C32.4,21.6,32.3,21.6,32.3,21.6" />
				</g>
			</g>
		</g>
		<g
   id="Group_17254">
			<g
   id="g37">
				<defs
   id="defs37">
					<rect
   id="SVGID_00000013879539162325308020000013256363518242415003_"
   x="-4.4"
   y="-1.3"
   width="85.9"
   height="97.9" />
				</defs>
				<clipPath
   id="SVGID_00000060736572587847259300000000710749398686657965_">
					<use
   xlink:href="#SVGID_00000013879539162325308020000013256363518242415003_"
   style="overflow:visible;"
   id="use37" />
				</clipPath>
				<g
   id="Group_17253"
   style="clip-path:url(#SVGID_00000060736572587847259300000000710749398686657965_);"
   clip-path="url(#SVGID_00000060736572587847259300000000710749398686657965_)">
					<path
   id="Path_12018"
   class="st31"
   d="M30.6,25.7c0,0-0.1,0.1,0,0.1l0.1,0.2c0.1,0.1,0.2,0.3,0.3,0.5c0,0.1,0,0.1,0.1,0.1       c0,0,0,0,0,0c0,0,0.1,0,0.1-0.1c0,0,0,0,0,0c0-0.2-0.1-0.4-0.3-0.6l-0.1-0.2C30.7,25.7,30.7,25.7,30.6,25.7" />
				</g>
			</g>
		</g>
		<g
   id="Group_17256">
			<g
   id="g38">
				<defs
   id="defs38">
					<rect
   id="SVGID_00000082355737056207721160000017583379858361378239_"
   x="-4.4"
   y="-1.3"
   width="85.9"
   height="97.9" />
				</defs>
				<clipPath
   id="SVGID_00000132769885162891209410000009196817203980192446_">
					<use
   xlink:href="#SVGID_00000082355737056207721160000017583379858361378239_"
   style="overflow:visible;"
   id="use38" />
				</clipPath>
				<g
   id="Group_17255"
   style="clip-path:url(#SVGID_00000132769885162891209410000009196817203980192446_);"
   clip-path="url(#SVGID_00000132769885162891209410000009196817203980192446_)">
					<path
   id="Path_12019"
   class="st31"
   d="M32.7,25.7c-0.2,0.2-0.3,0.4-0.3,0.6l-0.1,0.2c0,0,0,0.1,0.1,0.1c0,0,0.1,0,0.1,0       c0,0,0,0,0,0l0.1-0.2c0-0.2,0.1-0.4,0.3-0.5c0,0,0.1-0.1,0-0.1c0,0,0,0,0,0C32.8,25.7,32.8,25.7,32.7,25.7       C32.7,25.7,32.7,25.7,32.7,25.7" />
				</g>
			</g>
		</g>
		<g
   id="Group_17258">
			<g
   id="g39">
				<defs
   id="defs39">
					<rect
   id="SVGID_00000012442227562997375120000011310805693708689806_"
   x="-4.4"
   y="-1.3"
   width="85.9"
   height="97.9" />
				</defs>
				<clipPath
   id="SVGID_00000170996541921465357900000007609203773766473633_">
					<use
   xlink:href="#SVGID_00000012442227562997375120000011310805693708689806_"
   style="overflow:visible;"
   id="use39" />
				</clipPath>
				<g
   id="Group_17257"
   style="clip-path:url(#SVGID_00000170996541921465357900000007609203773766473633_);"
   clip-path="url(#SVGID_00000170996541921465357900000007609203773766473633_)">
					<path
   id="Path_12020"
   class="st31"
   d="M26.9,28.3c0,0.1,0,0.3,0.1,0.4l0.1,0.1l0.2,0.3c0.3,0.2,0.6,0.4,1,0.6c0,0,0.1,0,0.1,0       c0,0,0,0,0,0c0,0,0-0.1,0-0.1c-0.3-0.1-0.6-0.3-0.9-0.5l-0.1-0.2l-0.1-0.1c-0.1-0.1-0.1-0.2-0.1-0.3c0,0,0-0.1-0.1-0.1       c0,0,0,0,0,0C27,28.2,26.9,28.2,26.9,28.3" />
				</g>
			</g>
		</g>
		<g
   id="Group_17260">
			<g
   id="g40">
				<defs
   id="defs40">
					<rect
   id="SVGID_00000139270880085169920540000013742310479355876528_"
   x="-4.4"
   y="-1.3"
   width="85.9"
   height="97.9" />
				</defs>
				<clipPath
   id="SVGID_00000114050704621308621210000002310237618255463070_">
					<use
   xlink:href="#SVGID_00000139270880085169920540000013742310479355876528_"
   style="overflow:visible;"
   id="use40" />
				</clipPath>
				<g
   id="Group_17259"
   style="clip-path:url(#SVGID_00000114050704621308621210000002310237618255463070_);"
   clip-path="url(#SVGID_00000114050704621308621210000002310237618255463070_)">
					<path
   id="Path_12021"
   class="st31"
   d="M31.7,28.2l-0.4,0.1l0,0l-0.3,0.1l-0.2,0.1c0,0-0.1,0.1-0.1,0.1c0,0,0.1,0.1,0.1,0.1       c0,0,0,0,0,0l0.2-0.1l0.3-0.1l0,0l0.4-0.1c0.3-0.1,0.6-0.1,1,0l0.1,0c0.3,0.1,0.7,0.2,1.1,0.1c0.2,0,0.7,0,0.8,0.3       c0,0.1,0,0.3,0,0.4l-0.1,0.4c0,0.1,0,0.1,0.1,0.1c0.1,0,0.1,0,0.1-0.1l0.1-0.3c0.1-0.2,0.1-0.4,0-0.5c-0.2-0.4-0.8-0.4-1-0.4       c-0.3,0-0.7,0-1-0.1l-0.1,0C32.4,28,32,28,31.7,28.2" />
				</g>
			</g>
		</g>
		<g
   id="Group_17262">
			<g
   id="g41">
				<defs
   id="defs41">
					<rect
   id="SVGID_00000142134190506744813230000017449864243174772656_"
   x="-4.4"
   y="-1.3"
   width="85.9"
   height="97.9" />
				</defs>
				<clipPath
   id="SVGID_00000160896696161774275550000002350261839974647995_">
					<use
   xlink:href="#SVGID_00000142134190506744813230000017449864243174772656_"
   style="overflow:visible;"
   id="use41" />
				</clipPath>
				<g
   id="Group_17261"
   style="clip-path:url(#SVGID_00000160896696161774275550000002350261839974647995_);"
   clip-path="url(#SVGID_00000160896696161774275550000002350261839974647995_)">
					<path
   id="Path_12022"
   class="st31"
   d="M23.8,23.8C23.8,23.8,23.7,23.9,23.8,23.8C23.7,23.9,23.7,23.9,23.8,23.8       c-0.1,0.2,0,0.2,0,0.2c0.1,0,0.3,0.3,0.3,0.5c0,0.1,0.1,0.1,0.1,0.1s0.1-0.1,0.1-0.1l0,0C24.3,24.3,24.1,23.8,23.8,23.8" />
				</g>
			</g>
		</g>
		<g
   id="Group_17264">
			<g
   id="g42">
				<defs
   id="defs42">
					<rect
   id="SVGID_00000051376831938731245940000011610060529037982871_"
   x="-4.4"
   y="-1.3"
   width="85.9"
   height="97.9" />
				</defs>
				<clipPath
   id="SVGID_00000109747269560884911340000013900997435111802520_">
					<use
   xlink:href="#SVGID_00000051376831938731245940000011610060529037982871_"
   style="overflow:visible;"
   id="use42" />
				</clipPath>
				<g
   id="Group_17263"
   style="clip-path:url(#SVGID_00000109747269560884911340000013900997435111802520_);"
   clip-path="url(#SVGID_00000109747269560884911340000013900997435111802520_)">
					<path
   id="Path_12023"
   class="st31"
   d="M27.1,28.8C27.1,28.8,27.1,28.9,27.1,28.8l1.7,0.2c0.1,0,0.1,0,0.1-0.1c0,0,0,0,0,0       c0-0.1,0-0.1-0.1-0.1L27.1,28.8C27.1,28.7,27.1,28.7,27.1,28.8" />
				</g>
			</g>
		</g>
		<g
   id="Group_17266">
			<g
   id="g43">
				<defs
   id="defs43">
					<rect
   id="SVGID_00000132089892131690017320000004912521441837559227_"
   x="-4.4"
   y="-1.3"
   width="85.9"
   height="97.9" />
				</defs>
				<clipPath
   id="SVGID_00000131349575601166346600000009065453451617821117_">
					<use
   xlink:href="#SVGID_00000132089892131690017320000004912521441837559227_"
   style="overflow:visible;"
   id="use43" />
				</clipPath>
				<g
   id="Group_17265"
   style="clip-path:url(#SVGID_00000131349575601166346600000009065453451617821117_);"
   clip-path="url(#SVGID_00000131349575601166346600000009065453451617821117_)">
					<path
   id="Path_12024"
   class="st31"
   d="M19.2,32.5h18.1v-3.1H19.2V32.5z M37,32.1H19.6v-2.3H37V32.1z" />
				</g>
			</g>
		</g>
		<g
   id="Group_17268">
			<g
   id="g44">
				<defs
   id="defs44">
					<rect
   id="SVGID_00000101065843848524131900000006714883522231670974_"
   x="-4.4"
   y="-1.3"
   width="85.9"
   height="97.9" />
				</defs>
				<clipPath
   id="SVGID_00000116942154266056490240000003579730946181129635_">
					<use
   xlink:href="#SVGID_00000101065843848524131900000006714883522231670974_"
   style="overflow:visible;"
   id="use44" />
				</clipPath>
				<g
   id="Group_17267"
   style="clip-path:url(#SVGID_00000116942154266056490240000003579730946181129635_);"
   clip-path="url(#SVGID_00000116942154266056490240000003579730946181129635_)">
					<path
   id="Path_12025"
   class="st31"
   d="M10.5,12.5c-0.1,0-0.2,0.1-0.2,0.2c0,0.1,0.1,0.2,0.2,0.2c0.3,0,0.5,0.2,0.8,0.5l0.4,0.4       c0.1,0.1,0.2,0.1,0.2,0c0,0,0,0,0,0c0.1-0.1,0.1-0.2,0-0.3l-0.3-0.3C11.3,12.7,10.9,12.5,10.5,12.5" />
				</g>
			</g>
		</g>
		<g
   id="Group_17270">
			<g
   id="g45">
				<defs
   id="defs45">
					<rect
   id="SVGID_00000155851012801276824710000009484370391818377134_"
   x="-4.4"
   y="-1.3"
   width="85.9"
   height="97.9" />
				</defs>
				<clipPath
   id="SVGID_00000046320814201541044940000001732986233566100883_">
					<use
   xlink:href="#SVGID_00000155851012801276824710000009484370391818377134_"
   style="overflow:visible;"
   id="use45" />
				</clipPath>
				<g
   id="Group_17269"
   style="clip-path:url(#SVGID_00000046320814201541044940000001732986233566100883_);"
   clip-path="url(#SVGID_00000046320814201541044940000001732986233566100883_)">
					<path
   id="Path_12026"
   class="st31"
   d="M11.1,12.9c-0.1,0-0.2,0.2-0.4,0.4l-0.2,0.3l0.1,0c0.3,0.1,0.7,0,1-0.2c0,0,0-0.1,0-0.1       c0,0,0,0,0,0c0,0-0.1,0-0.1,0c-0.2,0.1-0.4,0.2-0.6,0.1c0,0,0.1-0.1,0.1-0.1c0.1-0.1,0.2-0.3,0.3-0.3       C11.1,13,11.1,13,11.1,12.9L11.1,12.9C11.1,12.9,11.1,12.9,11.1,12.9C11.1,12.9,11.1,12.9,11.1,12.9" />
				</g>
			</g>
		</g>
		<g
   id="Group_17272">
			<g
   id="g46">
				<defs
   id="defs46">
					<rect
   id="SVGID_00000138551865175758963320000017752547701071477652_"
   x="-4.4"
   y="-1.3"
   width="85.9"
   height="97.9" />
				</defs>
				<clipPath
   id="SVGID_00000026149051364720653810000000171481061902485632_">
					<use
   xlink:href="#SVGID_00000138551865175758963320000017752547701071477652_"
   style="overflow:visible;"
   id="use46" />
				</clipPath>
				<g
   id="Group_17271"
   style="clip-path:url(#SVGID_00000026149051364720653810000000171481061902485632_);"
   clip-path="url(#SVGID_00000026149051364720653810000000171481061902485632_)">
					<path
   id="Path_12027"
   class="st31"
   d="M7,15.8c0,0.1,0,0.2,0.1,0.2c0,0,0,0,0,0c0.9,0.2,1.8,0.3,2.7,0.2l1,0c0,0,0.1,0,0.1,0       c-0.1,0-0.2,0-0.3,0l-0.2,0l-0.3,0.1l-1.4,0.3c-0.3,0.1-0.6,0.1-0.8,0.1c-0.1-0.1-0.2,0-0.3,0c-0.1,0.1-0.1,0.2,0,0.2       c0.2,0.2,0.8,0.1,1.2,0l1.4-0.3l0.3-0.1l0.2,0c0.3,0,0.6-0.1,0.7-0.2c0.1-0.1,0.1-0.2,0-0.4c-0.1-0.2-0.4-0.2-0.6-0.2l-1,0       c-0.9,0.1-1.7,0-2.6-0.2C7.2,15.7,7.1,15.7,7,15.8C7,15.8,7,15.8,7,15.8" />
				</g>
			</g>
		</g>
		<g
   id="Group_17274">
			<g
   id="g47">
				<defs
   id="defs47">
					<rect
   id="SVGID_00000034065980095116018880000013405257783477097917_"
   x="-4.4"
   y="-1.3"
   width="85.9"
   height="97.9" />
				</defs>
				<clipPath
   id="SVGID_00000042725548231078296960000008368539932091251368_">
					<use
   xlink:href="#SVGID_00000034065980095116018880000013405257783477097917_"
   style="overflow:visible;"
   id="use47" />
				</clipPath>
				<g
   id="Group_17273"
   style="clip-path:url(#SVGID_00000042725548231078296960000008368539932091251368_);"
   clip-path="url(#SVGID_00000042725548231078296960000008368539932091251368_)">
					<path
   id="Path_12028"
   class="st31"
   d="M13.1,12.3c-0.1,0-0.1,0.2-0.1,0.2c0,0,0,0,0,0c0.1,0.2,0.2,0.4,0.2,0.7c0,0,0,0.1,0,0.1       l0,0.2l0.1,0.2l0,0c0,0.1,0,0.1-0.1,0.2l-0.1,0.4l0,0.2l0,0.1c0,0,0,0,0,0.1L13,15c0,0.1,0,0.1,0,0.2c0,0.1,0,0.2,0.1,0.3       l0,0.2L13,15.9l-0.2,0.3l0,0.2c0,0,0,0.1,0,0.1c0,0-0.1,0-0.1,0l-0.2,0.2l-0.1,0.3c0,0.1,0,0.2-0.1,0.3c-0.1,0.1-0.1,0.2,0,0.3       c0.1,0.1,0.2,0.1,0.3,0l0,0c0.1-0.1,0.2-0.3,0.2-0.5l0-0.2c0.1-0.1,0.2-0.2,0.3-0.2l0-0.4l0-0.1c0,0,0.1-0.2,0.1-0.2l0.1-0.3       l0-0.4c0-0.1,0-0.1,0-0.2c0,0,0,0,0-0.1l0,0c0.1-0.1,0.2-0.2,0.2-0.3l0-0.3l0-0.1l0.1-0.3l0.1-0.3v0c0-0.1-0.1-0.2-0.2-0.3h0       c0,0,0-0.1,0-0.1l0-0.2c0-0.3-0.1-0.5-0.2-0.8C13.3,12.3,13.2,12.2,13.1,12.3" />
				</g>
			</g>
		</g>
		<g
   id="Group_17276">
			<g
   id="g48">
				<defs
   id="defs48">
					<rect
   id="SVGID_00000140727751567232340840000011623946796695532216_"
   x="-4.4"
   y="-1.3"
   width="85.9"
   height="97.9" />
				</defs>
				<clipPath
   id="SVGID_00000133500799942145968130000000998751640254873528_">
					<use
   xlink:href="#SVGID_00000140727751567232340840000011623946796695532216_"
   style="overflow:visible;"
   id="use48" />
				</clipPath>
				<g
   id="Group_17275"
   style="clip-path:url(#SVGID_00000133500799942145968130000000998751640254873528_);"
   clip-path="url(#SVGID_00000133500799942145968130000000998751640254873528_)">
					<path
   id="Path_12029"
   class="st31"
   d="M15.1,12.5c-0.1,0-0.1,0.2-0.1,0.3c0.1,0.2,0.2,0.5,0.2,0.7c0,0,0,0,0,0.1l0,0.2l0.1,0.2       c0,0,0,0.1,0.1,0.1c0,0.1,0,0.1-0.1,0.2l-0.1,0.4l0,0.2l0,0.1c0,0,0,0,0,0.1L15,15.3c0,0.1,0,0.1,0,0.2c0,0.1,0,0.2,0.1,0.3       l0,0.2l-0.3,0.6l0,0.3l0,0.1c0,0-0.1,0-0.1,0l-0.2,0.2l-0.1,0.3c0,0.1,0,0.2-0.1,0.3c-0.1,0.1-0.1,0.2,0,0.3c0,0,0,0,0,0       c0.1,0.1,0.2,0.1,0.3,0c0,0,0,0,0,0c0.1-0.1,0.2-0.3,0.2-0.5c0,0,0-0.2,0-0.2c0,0,0,0,0,0l0.3-0.2l0-0.4l0-0.1       c0,0,0.1-0.2,0.1-0.2l0.1-0.3l0-0.4c0-0.1,0-0.1,0-0.2c0,0,0,0,0-0.1l0,0c0.1-0.1,0.2-0.2,0.2-0.3l0-0.3l0-0.1l0.1-0.3l0.1-0.3       v0c0-0.1-0.1-0.2-0.2-0.3l0,0c0,0,0-0.1,0-0.1l0-0.2c0-0.3-0.1-0.5-0.2-0.8C15.3,12.5,15.2,12.5,15.1,12.5" />
				</g>
			</g>
		</g>
		<g
   id="Group_17278">
			<g
   id="g49">
				<defs
   id="defs49">
					<rect
   id="SVGID_00000012469412879370360300000006262754340375724464_"
   x="-4.4"
   y="-1.3"
   width="85.9"
   height="97.9" />
				</defs>
				<clipPath
   id="SVGID_00000049913930383108494280000012726731035149698452_">
					<use
   xlink:href="#SVGID_00000012469412879370360300000006262754340375724464_"
   style="overflow:visible;"
   id="use49" />
				</clipPath>
				<g
   id="Group_17277"
   style="clip-path:url(#SVGID_00000049913930383108494280000012726731035149698452_);"
   clip-path="url(#SVGID_00000049913930383108494280000012726731035149698452_)">
					<path
   id="Path_12030"
   class="st31"
   d="M14.1,12.5c-0.1,0-0.2,0.1-0.2,0.2v0c0,0.2,0.1,0.3,0.2,0.4l0.1,0.2c0,0,0,0.6,0,0.6       l0.1,0.3c0,0,0.1,0.1,0.1,0.1v0l0,0l-0.2,0.2l0,0.2V15l-0.1,0.3L14,15.6l0,0.4l0,0.3c0,0.4-0.2,0.8-0.5,1.1       c0,0-0.1,0.1-0.1,0.1c0,0,0,0.1,0,0.1c0.1,0.1,0.2,0.1,0.3,0c0,0,0,0,0,0c0.4-0.3,0.6-0.8,0.6-1.3v-0.7l0.1-0.3l0.1-0.3l0-0.2       v-0.1l0,0l0.2-0.3c0-0.2,0-0.3-0.2-0.5l-0.1-0.1l0-0.2l0-0.4l-0.1-0.3c-0.1-0.1-0.1-0.2-0.1-0.3C14.3,12.5,14.2,12.5,14.1,12.5       C14.1,12.5,14.1,12.5,14.1,12.5" />
				</g>
			</g>
		</g>
		<g
   id="Group_17280">
			<g
   id="g50">
				<defs
   id="defs50">
					<rect
   id="SVGID_00000112595907705251039770000002201358153270469267_"
   x="-4.4"
   y="-1.3"
   width="85.9"
   height="97.9" />
				</defs>
				<clipPath
   id="SVGID_00000008855244607586611980000002939340844198981249_">
					<use
   xlink:href="#SVGID_00000112595907705251039770000002201358153270469267_"
   style="overflow:visible;"
   id="use50" />
				</clipPath>
				<g
   id="Group_17279"
   style="clip-path:url(#SVGID_00000008855244607586611980000002939340844198981249_);"
   clip-path="url(#SVGID_00000008855244607586611980000002939340844198981249_)">
					<path
   id="Path_12031"
   class="st31"
   d="M18.2,13.2c0,0.3-0.1,0.5-0.2,0.8c-0.1,0.3-0.2,0.6-0.2,0.9l-0.1,0.4       c-0.1,0.5-0.1,0.9-0.1,1.4c0.1,0.6,0.2,1.1,0.4,1.7c0.2,0.5,0.3,1.1,0.4,1.7c0,0.1,0.1,0.2,0.2,0.2c0.1,0,0.2-0.1,0.2-0.2       c0,0,0,0,0,0c0-0.6-0.2-1.2-0.4-1.8c-0.2-0.5-0.3-1.1-0.3-1.6c0-0.4,0-0.9,0.1-1.3l0.1-0.4c0-0.3,0.1-0.5,0.2-0.8       c0.1-0.3,0.2-0.6,0.2-0.9c0-0.1-0.1-0.2-0.2-0.2C18.3,13,18.2,13.1,18.2,13.2" />
				</g>
			</g>
		</g>
		<g
   id="Group_17282">
			<g
   id="g51">
				<defs
   id="defs51">
					<rect
   id="SVGID_00000045604183825916059870000009314608854928416912_"
   x="-4.4"
   y="-1.3"
   width="85.9"
   height="97.9" />
				</defs>
				<clipPath
   id="SVGID_00000091714092119206726260000014044606624864879762_">
					<use
   xlink:href="#SVGID_00000045604183825916059870000009314608854928416912_"
   style="overflow:visible;"
   id="use51" />
				</clipPath>
				<g
   id="Group_17281"
   style="clip-path:url(#SVGID_00000091714092119206726260000014044606624864879762_);"
   clip-path="url(#SVGID_00000091714092119206726260000014044606624864879762_)">
					<path
   id="Path_12032"
   class="st31"
   d="M21.2,14.2c-0.2,0.4-0.3,0.8-0.1,1.2c0.1,0.2,0.1,0.3,0.1,0.5l0.1,0.5l0.1,0.3L21.2,17       l-0.1,0.4c0,0.2-0.1,0.5-0.1,0.7c-0.1,0.3-0.1,0.6,0,0.9l0.2,0.5c0.2,0.4,0.4,0.8,0.3,1.2c0,0.1,0,0.2,0.1,0.2       c0.1,0,0.2,0,0.2-0.1c0,0,0,0,0,0c0-0.5-0.1-1-0.4-1.5l-0.2-0.4c-0.1-0.2-0.1-0.5,0-0.7c0.1-0.3,0.1-0.5,0.2-0.8l0.1-0.3       l0.1-0.5l-0.1-0.4l0-0.4c0-0.2,0-0.4-0.1-0.6c-0.1-0.3-0.1-0.6,0-0.9c0.1-0.1,0.1-0.2,0-0.3c0,0,0,0,0,0       C21.4,14.1,21.3,14.1,21.2,14.2" />
				</g>
			</g>
		</g>
		<g
   id="Group_17284">
			<g
   id="g52">
				<defs
   id="defs52">
					<rect
   id="SVGID_00000065795538034891297570000013774413614646219660_"
   x="-4.4"
   y="-1.3"
   width="85.9"
   height="97.9" />
				</defs>
				<clipPath
   id="SVGID_00000125568628547436523120000012292282898167636392_">
					<use
   xlink:href="#SVGID_00000065795538034891297570000013774413614646219660_"
   style="overflow:visible;"
   id="use52" />
				</clipPath>
				<g
   id="Group_17283"
   style="clip-path:url(#SVGID_00000125568628547436523120000012292282898167636392_);"
   clip-path="url(#SVGID_00000125568628547436523120000012292282898167636392_)">
					<path
   id="Path_12033"
   class="st31"
   d="M30.3,16.4l-0.6,0c-0.1,0-0.2,0.1-0.2,0.2c0,0.1,0.1,0.2,0.2,0.2c0,0,0,0,0,0l0.7,0       c0.5-0.1,0.9,0,1.4,0.1c0.7,0.3,1.3,0.9,1.8,1.5c0.5,0.7,1.1,1.4,1.7,2c0.3,0.3,0.6,0.6,1,0.9L37,22c0.2,0.2,0.7,0.8,0.8,0.9       C37.9,23,38,23,38.1,23c0.1-0.1,0.1-0.2,0.1-0.3c0,0,0,0,0,0c-0.1-0.2-0.7-0.8-0.9-1L36.4,21c-0.3-0.3-0.6-0.5-0.9-0.8       c-0.6-0.6-1.1-1.3-1.6-2c-0.5-0.7-1.2-1.3-2-1.6C31.4,16.4,30.8,16.4,30.3,16.4" />
				</g>
			</g>
		</g>
		<g
   id="Group_17286">
			<g
   id="g53">
				<defs
   id="defs53">
					<rect
   id="SVGID_00000110433398839493533660000007642118425435770300_"
   x="-4.4"
   y="-1.3"
   width="85.9"
   height="97.9" />
				</defs>
				<clipPath
   id="SVGID_00000092441482632106834170000006747392599088700602_">
					<use
   xlink:href="#SVGID_00000110433398839493533660000007642118425435770300_"
   style="overflow:visible;"
   id="use53" />
				</clipPath>
				<g
   id="Group_17285"
   style="clip-path:url(#SVGID_00000092441482632106834170000006747392599088700602_);"
   clip-path="url(#SVGID_00000092441482632106834170000006747392599088700602_)">
					<path
   id="Path_12034"
   class="st31"
   d="M31.8,13.7c-0.1,0-0.2,0.1-0.2,0.2c0.1,1.3,0.5,2.6,1.3,3.7c0.1,0.1,0.2,0.1,0.3,0       c0.1-0.1,0.1-0.2,0-0.3c-0.7-1-1.1-2.3-1.2-3.5C32,13.8,31.9,13.7,31.8,13.7C31.8,13.7,31.8,13.7,31.8,13.7" />
				</g>
			</g>
		</g>
		<g
   id="Group_17288">
			<g
   id="g54">
				<defs
   id="defs54">
					<rect
   id="SVGID_00000021832705864697542980000017223001692665808318_"
   x="-4.4"
   y="-1.3"
   width="85.9"
   height="97.9" />
				</defs>
				<clipPath
   id="SVGID_00000078028699074768325320000005001449800947751602_">
					<use
   xlink:href="#SVGID_00000021832705864697542980000017223001692665808318_"
   style="overflow:visible;"
   id="use54" />
				</clipPath>
				<g
   id="Group_17287"
   style="clip-path:url(#SVGID_00000078028699074768325320000005001449800947751602_);"
   clip-path="url(#SVGID_00000078028699074768325320000005001449800947751602_)">
					<path
   id="Path_12035"
   class="st31"
   d="M28.5,17.3c-0.5,0-1,0.3-1.3,0.8l-0.1,0.1c-0.2,0.3-0.2,0.3-0.5,0.3l-0.4-0.1       c-0.2-0.1-0.5-0.1-0.7-0.1c-0.3,0-0.5,0.1-0.8,0.3l-0.3,0.2c-0.3,0.1-0.6,0.1-0.9,0c-0.5-0.2-1-0.1-1.4,0.1       c-0.1,0.1-0.1,0.2-0.1,0.3c0.1,0.1,0.2,0.1,0.3,0.1c0,0,0,0,0,0c0.3-0.2,0.7-0.2,1.1-0.1c0.4,0.1,0.7,0.1,1.1,0l0.4-0.2       c0.1-0.1,0.3-0.2,0.5-0.2c0.2,0,0.4,0.1,0.6,0.1l0.4,0.1c0.6,0.1,0.7,0,0.9-0.5l0.1-0.1c0.2-0.4,0.6-0.6,1-0.6       c0.2,0,0.4,0.1,0.6,0.3c0.2,0.2,0.5,0.3,0.8,0.3c0.2-0.1,0.4-0.2,0.5-0.5l0.1-0.2l0-0.1c0-0.1,0-0.2-0.1-0.2c0,0,0,0,0,0       c-0.1,0-0.2,0-0.2,0.1l0,0.1l0,0.1c-0.1,0.2-0.2,0.3-0.2,0.3c-0.1,0-0.3-0.1-0.5-0.2C29.2,17.5,28.9,17.4,28.5,17.3" />
				</g>
			</g>
		</g>
		<g
   id="Group_17290">
			<g
   id="g55">
				<defs
   id="defs55">
					<rect
   id="SVGID_00000013895506800792955280000011790704345400196267_"
   x="-4.4"
   y="-1.3"
   width="85.9"
   height="97.9" />
				</defs>
				<clipPath
   id="SVGID_00000075141187186500488850000016701277698504584620_">
					<use
   xlink:href="#SVGID_00000013895506800792955280000011790704345400196267_"
   style="overflow:visible;"
   id="use55" />
				</clipPath>
				<g
   id="Group_17289"
   style="clip-path:url(#SVGID_00000075141187186500488850000016701277698504584620_);"
   clip-path="url(#SVGID_00000075141187186500488850000016701277698504584620_)">
					<path
   id="Path_12036"
   class="st31"
   d="M15.7,32.5h3.9v-3.1h-3.9V32.5z M19.2,32.1h-3.2v-2.3h3.2L19.2,32.1z" />
				</g>
			</g>
		</g>
		<g
   id="Group_17292">
			<g
   id="g56">
				<defs
   id="defs56">
					<rect
   id="SVGID_00000148624294147748353670000002385493555526839996_"
   x="-4.4"
   y="-1.3"
   width="85.9"
   height="97.9" />
				</defs>
				<clipPath
   id="SVGID_00000058552313661495279320000003442941449323021979_">
					<use
   xlink:href="#SVGID_00000148624294147748353670000002385493555526839996_"
   style="overflow:visible;"
   id="use56" />
				</clipPath>
				<g
   id="Group_17291"
   style="clip-path:url(#SVGID_00000058552313661495279320000003442941449323021979_);"
   clip-path="url(#SVGID_00000058552313661495279320000003442941449323021979_)">
					<path
   id="Path_12037"
   class="st31"
   d="M37,32.5h3.8v-3.1H37V32.5z M40.3,32.1h-3v-2.3h3L40.3,32.1z" />
				</g>
			</g>
		</g>
		<g
   id="Group_17294">
			<g
   id="g57">
				<defs
   id="defs57">
					<rect
   id="SVGID_00000069373011563337763800000015676032350557778869_"
   x="-4.4"
   y="-1.3"
   width="85.9"
   height="97.9" />
				</defs>
				<clipPath
   id="SVGID_00000151525212206423012260000011463606603611219603_">
					<use
   xlink:href="#SVGID_00000069373011563337763800000015676032350557778869_"
   style="overflow:visible;"
   id="use57" />
				</clipPath>
				<g
   id="Group_17293"
   style="clip-path:url(#SVGID_00000151525212206423012260000011463606603611219603_);"
   clip-path="url(#SVGID_00000151525212206423012260000011463606603611219603_)">
					<path
   id="Path_12038"
   class="st31"
   d="M33.5,12.2c0,0.1,0,0.2,0.2,0.2c2.3,0.4,3.8,1.6,4.4,3.3c0.2,0.7,0.4,1.5,0.5,2.3       c0.1,1.2,0.5,2.3,1,3.3l0.3,0.5c0.1,0.1,0.2,0.1,0.2,0c0,0,0,0,0,0c0.1-0.1,0.1-0.2,0-0.3l-0.3-0.4c-0.5-1-0.8-2.1-0.9-3.2       c-0.1-0.8-0.3-1.6-0.5-2.3c-0.7-1.9-2.2-3.1-4.7-3.6C33.6,12,33.5,12.1,33.5,12.2" />
				</g>
			</g>
		</g>
		<g
   id="Group_17296">
			<g
   id="g58">
				<defs
   id="defs58">
					<rect
   id="SVGID_00000167361638926297140390000011316229605914153663_"
   x="-4.4"
   y="-1.3"
   width="85.9"
   height="97.9" />
				</defs>
				<clipPath
   id="SVGID_00000063612505857318018960000016286745104164055427_">
					<use
   xlink:href="#SVGID_00000167361638926297140390000011316229605914153663_"
   style="overflow:visible;"
   id="use58" />
				</clipPath>
				<g
   id="Group_17295"
   style="clip-path:url(#SVGID_00000063612505857318018960000016286745104164055427_);"
   clip-path="url(#SVGID_00000063612505857318018960000016286745104164055427_)">
					<path
   id="Path_12039"
   class="st31"
   d="M19.9,25.1c-0.1,0.2-0.1,0.5-0.1,0.8l-0.1,0.5L19.6,27l-0.2,0.9l-0.2,0.4       c-0.1,0.2-0.2,0.4-0.2,0.7v0.2l5.2-0.1v-0.4l-4.8,0.1c0-0.1,0.1-0.2,0.1-0.3l0.2-0.5l0.2-0.8l0.2-0.7l0.1-0.6       c0-0.2,0-0.4,0.1-0.6c0.1-0.3,0.3-0.6,0.5-0.9L20.6,24C20.3,24.4,20.1,24.7,19.9,25.1" />
				</g>
			</g>
		</g>
	</g>
	<g
   id="Group_17299"
   transform="translate(33.666 88.181)">
		<g
   id="Group_17298">
			<path
   id="Path_12040"
   class="st1"
   d="M-3.3-0.5L-3.3-0.5l-1,0.5l-0.1-0.6l1.2-0.6h0.6v5.6h-0.7L-3.3-0.5L-3.3-0.5z" />
			<path
   id="Path_12041"
   class="st1"
   d="M-0.3,3.8c0.2,0,0.4,0,0.6,0c0.4-0.1,0.8-0.2,1.2-0.5c0.4-0.4,0.7-0.9,0.7-1.5h0     C1.6,2.5,0.5,2.6-0.2,2c-0.4-0.3-0.6-0.8-0.6-1.3c0-1,0.8-1.9,1.8-2c0,0,0.1,0,0.1,0C2.3-1.3,3-0.4,3,1.1C3,2,2.7,3,2,3.7     C1.6,4.1,1,4.4,0.4,4.4c-0.2,0-0.5,0.1-0.7,0L-0.3,3.8L-0.3,3.8z M0,0.6c-0.1,0.6,0.4,1.1,1,1.2c0,0,0.1,0,0.1,0     c0.4,0,0.9-0.2,1.1-0.6c0-0.1,0.1-0.2,0.1-0.3c0-0.9-0.3-1.7-1.1-1.7C0.4-0.7,0-0.2,0,0.6L0,0.6z" />
			<path
   id="Path_12042"
   class="st1"
   d="M5.8,4.4V2.9H3.2V2.4l2.5-3.6h0.8v3.5h0.8v0.6H6.5v1.5L5.8,4.4z M5.8,2.3V0.4     c0-0.3,0-0.6,0-0.9h0C5.6-0.1,5.5,0.1,5.3,0.4L4,2.2v0L5.8,2.3L5.8,2.3z" />
			<path
   id="Path_12043"
   class="st1"
   d="M11.3-1.2v0.5L8.8,4.4H8.1l2.4-4.9v0H7.8v-0.6H11.3z" />
		</g>
	</g>
</g>
<g
   class="st61"
   id="g73"
   style="fill:#000000;fill-opacity:1">
	<path
   class="st1"
   d="M104.8,24.6c0.2,0.7,0.6,1.8,1.1,3c1.3,3.7,3.2,8.6,3.6,9.6c0.8,2,1.2,2.2,2.3,2.5c0.4,0.1,0.6,0.2,0.6,0.4   c0,0.2-0.2,0.3-0.8,0.3c-0.8,0-2.1-0.1-3.2-0.1c-0.8,0-1.3,0-1.9,0c-0.6,0-0.8-0.2-0.8-0.3c0-0.1,0.1-0.3,0.6-0.4   c1.1-0.2,1.1-0.7,1-1.2c-0.2-1-0.8-2.5-1.4-4.1c0-0.1-0.1-0.3-0.8-0.3c-1.6,0-3.6,0-4.1,0.1c-0.1,0-0.2,0.2-0.3,0.2   c-0.7,1.7-1.3,3.6-1.3,4.2c0,0.3,0.1,0.8,1.2,1.1c0.4,0.1,0.7,0.3,0.7,0.5c0,0.2-0.4,0.3-0.7,0.3c-0.4,0-1-0.1-2-0.1   s-2.2,0.1-2.6,0.1c-0.5,0-0.6-0.1-0.6-0.3c0-0.1,0.1-0.4,0.6-0.5c1.2-0.4,1.6-0.5,2.3-2.1c0.6-1.3,3.4-8.7,4.4-11.2   c0.1-0.3,0.2-0.5,0.2-0.6c0-0.1,0.1-0.2,0.2-0.4c0.2-0.3,0.5-0.8,0.7-1.1c0.2-0.2,0.3-0.3,0.4-0.3C104.5,24,104.6,24.1,104.8,24.6z    M105.4,32.8c-0.4-1.2-1.6-4.8-1.9-5.3c-0.1-0.2-0.1-0.2-0.2,0c-0.4,1.2-1.7,4.6-1.9,5.4c0,0.1,0,0.2,0.1,0.2c1,0,3,0,3.8,0   C105.4,33,105.5,32.9,105.4,32.8z"
   id="path58"
   style="fill:#000000;fill-opacity:1" />
	<path
   class="st1"
   d="M114.1,31.3c0.5-0.2,1.7-0.8,2.1-1c0.1-0.1,0.1-0.1,0.2-0.1c0.1,0,0.3,0.2,0.3,0.2c0,0.4-0.1,1-0.1,1.3   c0,0,0,0.2,0.2,0.1c0.7-0.6,2.1-1.5,3.3-1.5c0.9,0,1.5,0.2,1.9,0.5c0.4,0.3,0.7,0.7,0.8,0.9c0,0.1,0.1,0.2,0.2,0.1   c0.4-0.3,1.1-0.8,1.7-1.1c0.6-0.3,1.2-0.4,1.6-0.4c0.9,0,1.6,0.3,2.1,0.8c0.6,0.6,0.8,1.5,0.9,2.4c0.1,1.2,0.1,3.1,0.1,5.1   c0,0.4,0.2,0.9,1,1.1c0.3,0.1,0.5,0.2,0.5,0.4c0,0.2-0.2,0.3-0.7,0.3c-0.5,0-1.2-0.1-1.8-0.1c-0.8,0-1.2,0-1.8,0   c-0.5,0-0.6-0.1-0.6-0.3c0-0.1,0.3-0.3,0.6-0.3c0.8-0.2,0.9-0.5,0.9-1.4c0-0.6,0-3.4,0-4.2c0-0.7-0.1-1.1-0.4-1.6   c-0.3-0.5-0.9-0.9-1.8-0.9c-1.1,0-1.5,0.4-1.8,0.7c-0.1,0.1-0.2,0.5-0.2,0.8c0,0.2,0,4.9,0,5.4c0.1,0.8,0.2,1,1,1.2   c0.3,0.1,0.5,0.2,0.5,0.4c0,0.2-0.2,0.3-0.6,0.3c-0.5,0-1.4,0-1.9,0c-0.5,0-1.3,0-1.8,0c-0.5,0-0.6-0.2-0.6-0.3   c0-0.1,0.1-0.2,0.5-0.3c0.8-0.2,0.9-0.5,0.9-1.3l0-4.8c0-0.8-0.2-1.1-0.3-1.3c-0.3-0.4-0.9-0.8-1.8-0.8c-0.8,0-1.3,0.3-1.9,0.7   c-0.1,0.1-0.2,0.3-0.2,0.6c0,0.8-0.1,3.8-0.1,5.7c0,0.5,0.2,0.8,0.9,1.1c0.5,0.2,0.6,0.2,0.6,0.5c0,0.2-0.3,0.3-0.7,0.3   c-0.1,0-1.1,0-2.1,0c-0.8,0-1.3,0.1-1.9,0.1c-0.4,0-0.6-0.1-0.6-0.3c0-0.1,0.2-0.3,0.6-0.4c0.8-0.2,0.9-0.5,1-1.6   c0-0.7,0.1-3.1,0.1-4.9c0-0.1,0-0.4-0.2-0.6c-0.7-0.6-0.9-0.8-0.9-0.9C113.6,31.6,113.8,31.4,114.1,31.3z"
   id="path59"
   style="fill:#000000;fill-opacity:1" />
	<path
   class="st1"
   d="M139.8,31.3c0.5,0.5,0.9,1.2,0.9,2.1c0,0.1-0.2,0.5-0.5,0.5s-4.5,0-5.6,0c-0.1,0-0.2,0.1-0.2,0.2   c-0.1,0.2-0.1,0.6-0.1,0.9c0,0.9,0.4,2,0.9,2.7c0.6,0.7,1.6,1.3,2.8,1.3c1.1,0,1.8-0.3,2.2-0.9c0.1-0.1,0.2-0.3,0.3-0.3   c0.1,0,0.2,0.2,0.2,0.3c0,0.2-0.1,0.5-0.2,0.6c-0.8,1.2-2.1,1.9-3.7,1.9c-2.7,0-4.5-2.1-4.5-5c0-2,1-4,3-4.9   c0.6-0.3,1.5-0.4,1.9-0.4C138.1,30.4,139.1,30.7,139.8,31.3z M134.5,32.9c0,0.1,0,0.3,0.1,0.3c0.6,0,1.8,0,3.1,0   c0.5,0,0.9-0.2,0.9-0.7c0-0.7-0.7-1.5-1.6-1.5C135.9,31,134.9,31.8,134.5,32.9z"
   id="path60"
   style="fill:#000000;fill-opacity:1" />
	<path
   class="st1"
   d="M142.6,31.2c0.8-0.3,1.7-0.7,2-0.9c0.3-0.2,0.5-0.3,0.5-0.3c0.1,0,0.2,0.2,0.2,0.3c0,0.5-0.1,0.9-0.1,1.4   c0,0.1,0.1,0.2,0.2,0.1c0.9-0.9,2-1.5,2.8-1.5c1,0,1.3,0.6,1.3,0.9c0,0.1-0.1,0.2-0.1,0.4c-0.3,0.4-0.9,1.2-1.1,1.2   c0,0-0.3,0-0.4-0.1c-0.3-0.2-0.9-0.6-1.4-0.6c-0.4,0-0.8,0-1,0.3c-0.2,0.2-0.2,0.4-0.2,0.5c0,0.5,0.1,5,0.1,5.3   c0.1,0.7,0.2,1.2,0.7,1.3c0.3,0,0.8,0.2,1.1,0.3c0.4,0.1,0.5,0.3,0.5,0.4c0,0.2-0.2,0.2-0.6,0.2c-0.7,0-1.6-0.1-3.1-0.1   c-0.7,0-1.1,0.1-1.7,0.1c-0.3,0-0.5-0.1-0.5-0.3c0-0.2,0.3-0.2,0.5-0.3c1-0.3,1-0.6,1-2.1c0-0.6,0-3,0-4.6c0-0.3,0-0.6-0.2-0.8   c-0.5-0.4-0.9-0.6-0.9-0.7C142.3,31.6,142.4,31.3,142.6,31.2z"
   id="path61"
   style="fill:#000000;fill-opacity:1" />
	<path
   class="st1"
   d="M150.8,40.5c-0.4,0-0.7-0.1-0.7-0.3c0-0.1,0.2-0.3,0.6-0.4c0.6-0.2,0.9-0.5,1-0.7c0.1-0.3,0.1-1.9,0.1-2.8   c0-0.7,0-3.2,0-3.5c0-0.2-0.3-0.4-1-0.9c-0.2-0.1-0.2-0.2-0.2-0.3c0-0.2,0.2-0.4,0.5-0.5c1-0.2,2.2-0.8,2.6-0.8   c0.1,0,0.2,0.2,0.2,0.3c0,0.4-0.2,3.7-0.2,5.1c0,1.3,0,2.3,0.1,3.1c0,0.8,0.5,0.8,1.1,1c0.4,0.1,0.5,0.3,0.5,0.4   c0,0.2-0.3,0.3-0.6,0.3c-0.2,0-1.4-0.1-1.9-0.1C152.2,40.4,151.3,40.5,150.8,40.5z M154.1,26.5c0,0.7-0.7,1.3-1.2,1.3   c-0.2,0-0.6-0.1-0.8-0.3c-0.2-0.2-0.4-0.5-0.4-1c0-0.2,0.1-0.7,0.3-0.9c0.3-0.2,0.7-0.4,1-0.4C153.7,25.2,154.1,26.1,154.1,26.5z"
   id="path62"
   style="fill:#000000;fill-opacity:1" />
	<path
   class="st1"
   d="M164.9,31c0.2,0.2,0.4,0.6,0.4,0.8c0,0.4-0.8,1-0.8,1c-0.2,0-0.6-0.2-1-0.5c-0.8-0.6-1.2-1-2.1-1   c-0.3,0-1,0.3-1.4,0.8c-0.7,0.8-1,1.8-1,2.9c0,1.5,0.6,2.3,0.7,2.5c0.6,1,1.7,1.6,3,1.6c0.9,0,1.6-0.3,2.2-0.8   c0.2-0.2,0.4-0.1,0.4,0c0,0.3-0.2,0.5-0.3,0.8c-0.8,1-2.3,1.6-3.6,1.6c-1.6,0-3-0.9-3.7-2c-0.5-0.7-0.8-1.9-0.8-2.9   c0-1.8,1-3.3,2.4-4.3c1-0.7,2.6-1,3.3-1C163.3,30.4,164.4,30.6,164.9,31z"
   id="path63"
   style="fill:#000000;fill-opacity:1" />
	<path
   class="st1"
   d="M173.3,31.5c0.3,0.5,0.5,1,0.5,2.1c0,1-0.1,4.1-0.1,4.3c0,1,0.7,1.2,1,1.2c0.1,0,0.6-0.2,1-0.4   c0.1,0,0.1,0,0.2,0.1c0,0.1,0,0.2,0,0.3c0,0.5-1.1,1.6-2.3,1.6c-0.6,0-1.3-0.3-1.6-1.2c0,0-0.1-0.1-0.2-0.1c-0.9,0.6-1.9,1-2.2,1.1   c-0.3,0.1-0.9,0.2-1,0.2c-0.9,0-1.8-1.1-1.8-2.3c0-0.5,0.2-0.9,0.5-1.3c0.2-0.3,0.6-0.4,1-0.6c0.4-0.2,2.4-0.7,3-0.9   c0.5-0.2,0.7-0.3,0.7-0.5c0-0.2,0.1-1.7,0-2c0-0.6-0.7-1.6-1.9-1.6c-0.5,0-0.8,0.1-1,0.2c-0.1,0.1-0.2,0.5-0.2,1   c0,0.1-0.1,0.2-0.1,0.2c-0.2,0.2-1.6,0.9-1.8,0.9c-0.2,0-0.3-0.2-0.3-0.3c0-0.7,0.7-1.4,1.9-2.2c0.8-0.5,1.9-0.9,2.3-0.9   C172.3,30.3,173,31,173.3,31.5z M171.5,38.9c0.1-0.1,0.3-0.5,0.3-0.6c0-0.5,0.1-1.4,0.1-2c0-0.1-0.1-0.2-0.2-0.2   c-0.6,0-1.8,0.4-2.5,0.8c-0.3,0.1-0.5,0.3-0.5,0.9c0,1.1,1,1.5,1.5,1.5C170.6,39.3,171.1,39.2,171.5,38.9z"
   id="path64"
   style="fill:#000000;fill-opacity:1" />
	<path
   class="st1"
   d="M177.5,31.1c0.4-0.1,1.4-0.5,1.7-0.7c0.3-0.2,0.5-0.3,0.7-0.3c0.1,0,0.2,0.3,0.2,0.4c0,0.4-0.1,1-0.1,1.2   c0,0.1,0.1,0.1,0.2,0.1c1-0.7,2.2-1.4,3.3-1.4c1.2,0,1.9,0.5,2.3,1c0.6,0.6,0.9,1.8,0.9,3c0,0.5,0.1,4.2,0.1,4.5   c0,0.4,0.3,0.7,0.9,0.9c0.5,0.1,0.6,0.3,0.6,0.4c0,0.2-0.3,0.3-0.7,0.3c-0.6,0-1.2,0-2,0c-0.6,0-1.5,0-1.8,0   c-0.3,0-0.6-0.1-0.6-0.3c0-0.2,0.3-0.3,0.6-0.4c0.6-0.2,0.7-0.5,0.8-1.3c0-0.8,0-3.8,0-4.6c0-0.8-0.4-1.5-0.7-1.8s-1-0.5-1.6-0.5   c-1.1,0-1.7,0.3-2.1,0.7c-0.1,0.1-0.2,0.4-0.2,0.6c0,0.3,0,5.7,0,6c0,0.3,0.1,0.5,0.9,0.8c0.2,0.1,0.5,0.2,0.5,0.4   c0,0.2-0.3,0.3-0.7,0.3c-0.3,0-1.1,0-1.6,0c-0.9,0-1.7,0.1-2.1,0.1c-0.4,0-0.6-0.1-0.6-0.4c0-0.2,0.2-0.3,0.5-0.4   c0.8-0.2,1-0.5,1-1.4c0.1-0.7,0.2-2.9,0.2-5.4c0-0.3-0.1-0.5-0.6-1c-0.3-0.2-0.4-0.3-0.4-0.4C177.1,31.4,177.4,31.1,177.5,31.1z"
   id="path65"
   style="fill:#000000;fill-opacity:1" />
	<path
   class="st1"
   d="M212.1,32.2c0,3.4-1.7,5.8-3.5,7.1c-1.5,1.1-3.6,1.5-5,1.5c-2.6,0-5-1.1-6.5-2.8c-1.3-1.5-2.1-3.5-2.1-5.7   c0-3,1.4-5.1,3.2-6.6c1.2-1,3.3-1.8,5.2-1.8C208.4,24,212.1,27.6,212.1,32.2z M199.6,26.2c-1.1,1-1.9,2.9-1.9,5.8   c0,3.7,2.7,8,6.5,8c1.9,0,2.9-0.8,3.1-1.1c1-1,2.1-3,2.1-5.9c0-2.5-1.1-5.3-3-6.8c-1-0.8-2.5-1.3-3.6-1.3   C201.8,24.8,200.4,25.4,199.6,26.2z"
   id="path66"
   style="fill:#000000;fill-opacity:1" />
	<path
   class="st1"
   d="M214.2,30.5c0.4,0,1.9,0.1,2.2,0.1c0.6,0,1.3,0,1.6,0c0.4,0,0.6,0.1,0.6,0.3s-0.2,0.3-0.6,0.4   c-0.7,0.2-0.6,0.5-0.5,0.8c0.7,2.1,2,4.9,2.1,5.1c0.1,0.1,0.2,0,0.2-0.1c0.3-0.7,1.6-4.1,1.9-4.9c0.2-0.6,0-0.8-0.8-1.1   c-0.2-0.1-0.4-0.2-0.4-0.3c0-0.2,0.2-0.3,0.5-0.3c0.4,0,0.8,0.1,1.4,0.1c0.4,0,1.2-0.1,1.7-0.1c0.2,0,0.5,0.1,0.5,0.3   c0,0.2-0.2,0.2-0.5,0.4c-0.6,0.2-0.9,0.5-1.2,1c-0.4,0.7-1.3,2.9-2,4.7c-0.7,1.8-0.7,2-1.1,3.3c-0.1,0.4-0.4,0.6-0.6,0.6   c-0.1,0-0.3-0.2-0.4-0.4c-0.2-0.8-0.3-1.1-0.9-2.6c-0.6-1.6-1.9-4.7-2.5-5.8c-0.2-0.4-0.5-0.7-1.1-0.8c-0.4-0.2-0.5-0.2-0.5-0.4   C213.6,30.7,214,30.5,214.2,30.5z"
   id="path67"
   style="fill:#000000;fill-opacity:1" />
	<path
   class="st1"
   d="M232.5,31.3c0.5,0.5,0.9,1.2,0.9,2.1c0,0.1-0.2,0.5-0.5,0.5c-0.3,0-4.5,0-5.6,0c-0.1,0-0.2,0.1-0.2,0.2   c-0.1,0.2-0.1,0.6-0.1,0.9c0,0.9,0.4,2,0.9,2.7c0.6,0.7,1.6,1.3,2.8,1.3c1.1,0,1.8-0.3,2.2-0.9c0.1-0.1,0.2-0.3,0.3-0.3   c0.2,0,0.2,0.2,0.2,0.3c0,0.2-0.1,0.5-0.2,0.6c-0.8,1.2-2.1,1.9-3.7,1.9c-2.7,0-4.5-2.1-4.5-5c0-2,1-4,3-4.9   c0.7-0.3,1.5-0.4,1.9-0.4C230.9,30.4,231.9,30.7,232.5,31.3z M227.3,32.9c0,0.1,0,0.3,0.1,0.3c0.6,0,1.8,0,3.1,0   c0.6,0,0.9-0.2,0.9-0.7c0-0.7-0.7-1.5-1.6-1.5C228.7,31,227.7,31.8,227.3,32.9z"
   id="path68"
   style="fill:#000000;fill-opacity:1" />
	<path
   class="st1"
   d="M235.4,31.2c0.8-0.3,1.7-0.7,2-0.9c0.3-0.2,0.5-0.3,0.5-0.3c0.1,0,0.2,0.2,0.2,0.3c0,0.5,0,0.9,0,1.4   c0,0.1,0.1,0.2,0.1,0.1c1-0.9,2.1-1.5,2.8-1.5c1.1,0,1.3,0.6,1.3,0.9c0,0.1-0.1,0.2-0.2,0.4c-0.3,0.4-0.9,1.2-1.1,1.2   c-0.1,0-0.3,0-0.4-0.1c-0.3-0.2-0.9-0.6-1.4-0.6c-0.4,0-0.7,0-1,0.3c-0.2,0.2-0.2,0.4-0.2,0.5c0,0.5,0.1,5,0.1,5.3   c0.1,0.7,0.2,1.2,0.7,1.3c0.3,0,0.8,0.2,1.1,0.3c0.4,0.1,0.5,0.3,0.5,0.4c0,0.2-0.2,0.2-0.6,0.2c-0.7,0-1.6-0.1-3.1-0.1   c-0.7,0-1,0.1-1.6,0.1c-0.3,0-0.5-0.1-0.5-0.3c0-0.2,0.3-0.2,0.5-0.3c0.9-0.3,1-0.6,1-2.1c0-0.6,0-3,0-4.6c0-0.3,0-0.6-0.2-0.8   c-0.5-0.4-0.9-0.6-0.9-0.7C235.1,31.6,235.2,31.3,235.4,31.2z"
   id="path69"
   style="fill:#000000;fill-opacity:1" />
	<path
   class="st1"
   d="M248.5,30.5c0.3,0,0.8,0.2,0.8,0.3c0.1,0,0.2,0.2,0.2,0.4c0,0.4,0.1,1.3,0.1,1.5c0,0.2-0.1,0.5-0.3,0.5   c-0.1,0-0.3-0.2-0.4-0.5c-0.5-1.1-1.2-1.6-2-1.6c-0.9,0-1.4,0.9-1.4,1.5c0,0.9,0.8,1.5,2.4,2.4c1.5,0.9,2,1.8,2,2.9   c0,1.2-0.8,2-1.5,2.4c-0.5,0.3-1.4,0.6-2.2,0.6c-0.8,0-2-0.2-2.4-0.5c-0.1-0.1-0.4-1.2-0.4-1.9c0-0.3,0.1-0.5,0.2-0.5   c0.2,0,0.4,0.3,0.5,0.6c0.7,1.3,1.4,1.8,2.3,1.8c0.3,0,0.8-0.2,1-0.4c0.4-0.3,0.6-0.8,0.6-1.3c0-0.6-0.3-1.1-1.1-1.6   c-0.6-0.4-0.8-0.6-1.6-1c-0.8-0.5-1.6-1.4-1.6-2.6c0-0.9,0.5-1.7,1.4-2.3c0.5-0.3,1.2-0.5,2.1-0.5   C247.6,30.3,248.2,30.4,248.5,30.5z"
   id="path70"
   style="fill:#000000;fill-opacity:1" />
	<path
   class="st1"
   d="M259,31.3c0.5,0.5,0.9,1.2,0.9,2.1c0,0.1-0.2,0.5-0.5,0.5c-0.3,0-4.5,0-5.6,0c-0.1,0-0.2,0.1-0.2,0.2   c-0.1,0.2-0.1,0.6-0.1,0.9c0,0.9,0.4,2,0.9,2.7c0.6,0.7,1.6,1.3,2.8,1.3c1.1,0,1.8-0.3,2.2-0.9c0.1-0.1,0.2-0.3,0.3-0.3   c0.1,0,0.2,0.2,0.2,0.3c0,0.2-0.1,0.5-0.2,0.6c-0.9,1.2-2.1,1.9-3.7,1.9c-2.7,0-4.5-2.1-4.5-5c0-2,1.1-4,3-4.9   c0.6-0.3,1.5-0.4,1.9-0.4C257.3,30.4,258.3,30.7,259,31.3z M253.7,32.9c0,0.1,0,0.3,0.1,0.3c0.7,0,1.8,0,3.1,0   c0.5,0,0.8-0.2,0.8-0.7c0-0.7-0.7-1.5-1.6-1.5C255.1,31,254.1,31.8,253.7,32.9z"
   id="path71"
   style="fill:#000000;fill-opacity:1" />
	<path
   class="st1"
   d="M268.1,31.5c0.3,0.5,0.5,1,0.5,2.1c0,1-0.1,4.1-0.1,4.3c0,1,0.7,1.2,1,1.2c0.1,0,0.7-0.2,1-0.4   c0.1,0,0.1,0,0.2,0.1s0,0.2,0,0.3c0,0.5-1.1,1.6-2.3,1.6c-0.6,0-1.3-0.3-1.6-1.2c0,0-0.1-0.1-0.2-0.1c-0.9,0.6-1.9,1-2.2,1.1   c-0.3,0.1-0.8,0.2-1,0.2c-0.9,0-1.8-1.1-1.8-2.3c0-0.5,0.2-0.9,0.5-1.3c0.2-0.3,0.7-0.4,1-0.6c0.4-0.2,2.4-0.7,3-0.9   c0.5-0.2,0.7-0.3,0.7-0.5c0-0.2,0.1-1.7,0.1-2c0-0.6-0.7-1.6-1.9-1.6c-0.5,0-0.8,0.1-1,0.2c-0.1,0.1-0.2,0.5-0.2,1   c0,0.1-0.1,0.2-0.1,0.2c-0.2,0.2-1.6,0.9-1.8,0.9c-0.2,0-0.3-0.2-0.3-0.3c0-0.7,0.7-1.4,1.9-2.2c0.8-0.5,1.9-0.9,2.3-0.9   C267.1,30.3,267.8,31,268.1,31.5z M266.3,38.9c0.2-0.1,0.3-0.5,0.3-0.6c0-0.5,0-1.4,0-2c0-0.1-0.1-0.2-0.2-0.2   c-0.7,0-1.8,0.4-2.5,0.8c-0.3,0.1-0.5,0.3-0.5,0.9c0,1.1,1,1.5,1.5,1.5C265.4,39.3,265.9,39.2,266.3,38.9z"
   id="path72"
   style="fill:#000000;fill-opacity:1" />
	<path
   class="st1"
   d="M276.8,30.5c0.3,0,0.8,0.2,0.8,0.3c0.1,0,0.2,0.2,0.2,0.4c0,0.4,0.1,1.3,0.1,1.5c0,0.2-0.1,0.5-0.3,0.5   c-0.1,0-0.3-0.2-0.4-0.5c-0.5-1.1-1.2-1.6-2-1.6c-0.9,0-1.4,0.9-1.4,1.5c0,0.9,0.8,1.5,2.4,2.4c1.5,0.9,2,1.8,2,2.9   c0,1.2-0.8,2-1.5,2.4c-0.5,0.3-1.4,0.6-2.2,0.6c-0.8,0-2-0.2-2.4-0.5c-0.1-0.1-0.4-1.2-0.4-1.9c0-0.3,0.1-0.5,0.2-0.5   c0.2,0,0.4,0.3,0.5,0.6c0.7,1.3,1.4,1.8,2.3,1.8c0.3,0,0.8-0.2,1-0.4c0.4-0.3,0.6-0.8,0.6-1.3c0-0.6-0.3-1.1-1.1-1.6   c-0.6-0.4-0.8-0.6-1.6-1c-0.8-0.5-1.6-1.4-1.6-2.6c0-0.9,0.5-1.7,1.4-2.3c0.5-0.3,1.2-0.5,2.1-0.5C276,30.3,276.5,30.4,276.8,30.5z   "
   id="path73"
   style="fill:#000000;fill-opacity:1" />
</g>
<g
   class="st61"
   id="g85"
   style="fill:#000000;fill-opacity:1">
	<path
   class="st1"
   d="M105.5,47.4c0.2,0.1,0.3,0.4,0.3,0.5c0,0.4,0.2,2,0.2,2.1c0,0.4,0,0.6-0.2,0.6c-0.2,0-0.5-0.2-0.6-0.5   c-0.3-0.9-1-1.6-1.2-1.8c-0.5-0.4-1.1-0.6-1.8-0.6c-1.6,0-2.8,1.2-2.8,2.9c0,1.7,1.2,2.5,3.4,3.9c2.2,1.4,3.5,2.8,3.5,4.9   c0,1.2-0.7,2.7-2.1,3.5c-0.8,0.5-2.2,0.9-3.4,0.9c-0.9,0-2.5-0.2-3.3-0.6c-0.2-0.1-0.6-0.7-0.6-0.8c-0.1-0.8-0.4-2-0.4-2.4   c0-0.1,0.2-0.5,0.4-0.5c0.2,0,0.6,0.6,0.9,1.4c0.7,1.4,2.3,2.1,3.3,2.1c1.6,0,2.9-1.1,2.9-2.9c0-1.1-0.5-2.2-3-3.8   c-2.2-1.4-3.7-2.9-3.7-5c0-1.2,0.6-2.4,1.4-3.1c0.8-0.7,2-1.2,3.7-1.2C103.7,47,105,47.4,105.5,47.4z"
   id="path74"
   style="fill:#000000;fill-opacity:1" />
	<path
   class="st1"
   d="M116.7,54c0.2,0.2,0.4,0.6,0.4,0.8c0,0.4-0.8,1-0.9,1c-0.2,0-0.6-0.2-1-0.5c-0.8-0.6-1.2-1-2.1-1   c-0.3,0-1,0.3-1.4,0.8c-0.7,0.8-1,1.8-1,2.9c0,1.5,0.6,2.3,0.7,2.5c0.6,1,1.7,1.6,3,1.6c0.9,0,1.6-0.3,2.2-0.8   c0.2-0.2,0.4-0.1,0.4,0c0,0.3-0.1,0.5-0.4,0.8c-0.8,1-2.3,1.6-3.6,1.6c-1.6,0-3-0.9-3.7-2c-0.4-0.7-0.8-1.9-0.8-2.9   c0-1.8,1-3.3,2.4-4.3c1-0.7,2.6-1,3.3-1C115.1,53.4,116.3,53.6,116.7,54z"
   id="path75"
   style="fill:#000000;fill-opacity:1" />
	<path
   class="st1"
   d="M127.7,54.5c0.5,0.7,0.7,1.6,0.7,2.7c0,1.6,0.1,3.2,0.1,4.6c0,0.6,0.3,0.8,1,1c0.5,0.1,0.7,0.3,0.7,0.4   c0,0.2-0.2,0.3-0.7,0.3c-0.8,0-1.2-0.1-2-0.1c-0.6,0-1.1,0-1.9,0c-0.4,0-0.5-0.1-0.5-0.3c0-0.2,0.2-0.3,0.5-0.4   c0.6-0.2,0.7-0.3,0.8-1.2c0.1-0.5,0-3.3,0-3.7c0-1.3-0.2-2.1-0.4-2.4c-0.4-0.4-1-0.8-1.9-0.8c-1,0-1.8,0.5-1.9,0.5   c-0.1,0.1-0.4,0.4-0.4,1.1c-0.1,1.1-0.1,4.4,0,5.2c0.1,0.8,0.4,1,0.9,1.2c0.4,0.1,0.6,0.2,0.6,0.4c0,0.2-0.3,0.3-0.6,0.3   c-0.2,0-1.4,0-2.1,0s-1.5,0.1-2,0.1c-0.2,0-0.6-0.1-0.6-0.3c0-0.2,0.2-0.3,0.7-0.5c0.7-0.2,0.9-0.5,1-1.4c0.1-1,0.2-4.3,0.2-7   c0-1.2,0-5.2-0.1-5.9c-0.1-0.6-0.2-0.7-0.9-1.1c-0.1,0-0.2-0.3-0.2-0.5c0,0,0.1-0.1,0.1-0.1c0.7-0.2,2-0.5,2.7-0.9   c0.1-0.1,0.3-0.2,0.5-0.2c0.1,0,0.2,0.2,0.2,0.3c-0.2,1.8-0.3,8-0.3,8.6c0,0.1,0.1,0.2,0.2,0.1c1-0.9,2.1-1.4,3.1-1.4   C126.4,53.3,127.2,53.8,127.7,54.5z"
   id="path76"
   style="fill:#000000;fill-opacity:1" />
	<path
   class="st1"
   d="M142,58.4c0,2.1-1.2,3.7-2.2,4.3c-1,0.7-2.1,1-3.2,1c-1.1,0-2.4-0.5-3.3-1.3c-1.1-0.9-1.8-2.5-1.8-3.8   c0-1.9,0.8-3.1,1.7-3.9c0.8-0.7,2-1.4,3.7-1.4C139.4,53.3,142,55.3,142,58.4z M134.9,54.8c-0.6,0.6-1.1,1.8-1.1,3.2   c0,0.8,0.1,1.6,0.3,2.2c0.6,1.8,1.9,2.7,3.1,2.7c0.3,0,0.8-0.1,1.4-0.8c0.6-0.7,1.1-2.2,1.1-3.3c0-1.2-0.3-2.7-1.2-3.8   c-0.5-0.6-1.4-1-2-1C135.9,54.1,135.4,54.3,134.9,54.8z"
   id="path77"
   style="fill:#000000;fill-opacity:1" />
	<path
   class="st1"
   d="M154.4,58.4c0,2.1-1.2,3.7-2.2,4.3c-1,0.7-2.1,1-3.2,1c-1.1,0-2.4-0.5-3.3-1.3c-1.1-0.9-1.8-2.5-1.8-3.8   c0-1.9,0.8-3.1,1.7-3.9c0.8-0.7,2-1.4,3.7-1.4C151.8,53.3,154.4,55.3,154.4,58.4z M147.3,54.8c-0.6,0.6-1.1,1.8-1.1,3.2   c0,0.8,0.1,1.6,0.3,2.2c0.6,1.8,1.9,2.7,3.1,2.7c0.3,0,0.8-0.1,1.4-0.8c0.6-0.7,1.1-2.2,1.1-3.3c0-1.2-0.3-2.7-1.2-3.8   c-0.5-0.6-1.4-1-2-1C148.3,54.1,147.8,54.3,147.3,54.8z"
   id="path78"
   style="fill:#000000;fill-opacity:1" />
	<path
   class="st1"
   d="M156.5,46.7c1.1-0.4,2-0.5,2.7-1c0.1,0,0.2,0.2,0.2,0.2c-0.1,0.7-0.2,4-0.2,7.4c0,3.3,0,7.7,0.1,8.4   c0.1,0.5,0.2,0.8,1.2,1.1c0.3,0.1,0.5,0.2,0.5,0.4c0,0.2-0.3,0.3-0.6,0.3c-0.6,0-1.7-0.1-2.2-0.1c-0.6,0-1.7,0.1-2.2,0.1   s-0.7-0.1-0.7-0.3s0.3-0.3,0.6-0.4c1.1-0.2,1.1-0.7,1.2-1.9c0.1-1,0.1-3.7,0.1-7.7c0-1.7,0-4.3-0.1-5c0-0.2-0.1-0.3-0.6-0.7   c-0.4-0.3-0.5-0.4-0.5-0.5S156.3,46.8,156.5,46.7z"
   id="path79"
   style="fill:#000000;fill-opacity:1" />
	<path
   class="st1"
   d="M177.7,58.4c0,2.1-1.2,3.7-2.2,4.3c-1,0.7-2.1,1-3.2,1c-1.1,0-2.4-0.5-3.3-1.3c-1.1-0.9-1.8-2.5-1.8-3.8   c0-1.9,0.8-3.1,1.7-3.9c0.8-0.7,2-1.4,3.7-1.4C175.1,53.3,177.7,55.3,177.7,58.4z M170.6,54.8c-0.6,0.6-1.1,1.8-1.1,3.2   c0,0.8,0.1,1.6,0.3,2.2c0.6,1.8,1.9,2.7,3.1,2.7c0.3,0,0.8-0.1,1.4-0.8c0.6-0.7,1.1-2.2,1.1-3.3c0-1.2-0.3-2.7-1.2-3.8   c-0.5-0.6-1.4-1-2-1C171.7,54.1,171.2,54.3,170.6,54.8z"
   id="path80"
   style="fill:#000000;fill-opacity:1" />
	<path
   class="st1"
   d="M185.9,53.6c0.2,0,0.3,0.6,0.3,1.1c0,0.1-0.2,0.3-0.4,0.3c-0.2,0-2.5-0.1-2.8-0.1c0,0-0.2,0.1-0.2,0.2   c0,0.5,0,5.8,0.1,6.3c0.1,0.9,0.3,1.1,1.6,1.3c0.4,0.1,0.6,0.3,0.6,0.4c0,0.2-0.3,0.3-0.7,0.3c-0.3,0-1.4,0-2,0   c-1,0-2.3,0.1-2.6,0.1c-0.3,0-0.6-0.1-0.6-0.3c0-0.1,0.2-0.3,0.5-0.4c1.1-0.3,1.1-0.5,1.1-1.7c0-1,0.1-4.1,0.1-5.4   c0-0.8-0.2-0.8-0.2-0.8c-0.3,0-0.8,0-1,0c-0.1,0-0.3-0.2-0.2-0.4c0-0.1,0.7-0.4,1.2-0.9c0.2-0.1,0.3-0.3,0.3-0.4   c0-1.4,0.2-2.6,0.7-3.7c0.6-1.2,1.2-2.1,2.3-2.9c1-0.7,1.9-1,2.8-1c0.5,0,1.2,0.2,1.6,0.5c0.2,0.2,0.5,0.5,0.5,0.9   c0,0.4-0.4,1-0.7,1.1c-0.1,0.1-0.3,0.1-0.5,0.1c-0.2,0-0.3-0.1-0.7-0.5c-0.5-0.5-1.1-0.9-1.8-0.9c-0.6,0-1,0.3-1.4,1   c-0.6,1-0.9,2.3-0.9,5.7c0,0.1,0.1,0.2,0.2,0.2C184.5,53.7,185.8,53.6,185.9,53.6z"
   id="path81"
   style="fill:#000000;fill-opacity:1" />
	<path
   class="st1"
   d="M201.8,54.9c-0.1,0.1-0.6,0.3-0.8,0.5c-0.1,0-0.1,0.3-0.1,0.4c0.3,0.7,2.4,4.1,3.8,5.7   c0.7,0.8,1.4,1.2,2.4,1.4c0.2,0.1,0.4,0.2,0.4,0.4c0,0.1-0.2,0.2-0.4,0.3c-0.3,0.1-1,0.2-1.4,0.2c-1.4,0-2.7-0.8-3.4-1.6   c-0.8-1.1-2.1-3.1-3.1-4.7c-0.4-0.5-0.8-1.1-1-1.2c-0.1-0.1-1-0.3-1.7-0.3c-0.2,0-0.3,0.2-0.3,0.3c0,0.5,0,3.6,0.1,5   c0.1,1.1,0.3,1.4,1.5,1.7c0.4,0.1,0.6,0.3,0.6,0.4c0,0.3-0.5,0.4-0.7,0.4c-1,0-1.6-0.2-3.2-0.2c-0.5,0-1.8,0.1-2.1,0.1   c-0.4,0-0.7-0.1-0.7-0.4c0-0.2,0.2-0.2,0.5-0.4c1.1-0.4,1.5-0.5,1.6-1.5c0.1-1,0.2-3.5,0.2-5.2c0-3.6,0-5.8-0.2-6.8   c-0.1-0.8-0.3-1-1.4-1.2c-0.4-0.1-0.6-0.2-0.6-0.4c0-0.2,0.2-0.3,0.7-0.3c0.8,0,1,0,1.5,0c0.9,0,2.8-0.1,4.1-0.1   c1.6,0,3.1,0.2,4.1,1.1c0.8,0.6,1.4,1.9,1.4,3.1C203.7,52.8,203,54.1,201.8,54.9z M200.2,49c-0.6-0.6-1.6-0.9-2.4-0.9   c-0.1,0-0.9,0-1.2,0.2c-0.1,0-0.3,0.5-0.3,0.5c-0.1,0.9-0.1,5.6-0.1,6.1c0.1,0.2,0.2,0.4,0.4,0.4c1.4,0,2.7-0.4,3-0.6   c0.7-0.5,1.6-1.5,1.6-3C201.3,50.9,201,49.8,200.2,49z"
   id="path82"
   style="fill:#000000;fill-opacity:1" />
	<path
   class="st1"
   d="M218.4,58.4c0,2.1-1.2,3.7-2.2,4.3c-1,0.7-2.1,1-3.2,1c-1.2,0-2.4-0.5-3.3-1.3c-1.1-0.9-1.8-2.5-1.8-3.8   c0-1.9,0.8-3.1,1.8-3.9c0.8-0.7,2-1.4,3.7-1.4C215.8,53.3,218.4,55.3,218.4,58.4z M211.3,54.8c-0.6,0.6-1.2,1.8-1.2,3.2   c0,0.8,0.1,1.6,0.3,2.2c0.6,1.8,1.9,2.7,3.1,2.7c0.3,0,0.8-0.1,1.4-0.8c0.6-0.7,1.1-2.2,1.1-3.3c0-1.2-0.3-2.7-1.2-3.8   c-0.5-0.6-1.4-1-2-1C212.4,54.1,211.8,54.3,211.3,54.8z"
   id="path83"
   style="fill:#000000;fill-opacity:1" />
	<path
   class="st1"
   d="M220.9,54.3c0.5-0.2,1.7-0.8,2.1-1c0.1-0.1,0.2-0.1,0.2-0.1c0.1,0,0.3,0.2,0.3,0.2c0,0.4-0.1,1-0.1,1.3   c0,0,0,0.2,0.2,0.1c0.7-0.6,2.1-1.5,3.3-1.5c0.9,0,1.5,0.2,2,0.5c0.4,0.3,0.7,0.7,0.8,0.9c0,0.1,0.1,0.2,0.2,0.1   c0.5-0.3,1.1-0.8,1.7-1.1c0.6-0.3,1.2-0.4,1.6-0.4c0.9,0,1.6,0.3,2.2,0.8c0.6,0.6,0.8,1.5,0.8,2.4c0.1,1.2,0.1,3.1,0.1,5.1   c0,0.4,0.2,0.9,1,1.1c0.3,0.1,0.5,0.2,0.5,0.4c0,0.2-0.2,0.3-0.7,0.3c-0.5,0-1.2-0.1-1.8-0.1c-0.8,0-1.2,0-1.8,0   c-0.5,0-0.6-0.1-0.6-0.3c0-0.1,0.3-0.3,0.6-0.3c0.8-0.2,0.9-0.5,0.9-1.4c0-0.6,0-3.4-0.1-4.2c0-0.7-0.1-1.1-0.4-1.6   c-0.3-0.5-0.8-0.9-1.8-0.9c-1.1,0-1.5,0.4-1.8,0.7c-0.1,0.1-0.2,0.5-0.2,0.8c0,0.2,0,4.9,0,5.4c0.1,0.8,0.2,1,1,1.2   c0.3,0.1,0.5,0.2,0.5,0.4c0,0.2-0.2,0.3-0.6,0.3c-0.5,0-1.4,0-1.9,0c-0.5,0-1.3,0-1.8,0c-0.5,0-0.7-0.2-0.7-0.3   c0-0.1,0.1-0.2,0.5-0.3c0.8-0.2,0.9-0.5,0.9-1.3l0-4.8c0-0.8-0.2-1.1-0.3-1.3c-0.3-0.4-0.9-0.8-1.8-0.8c-0.8,0-1.3,0.3-1.9,0.7   c-0.1,0.1-0.2,0.3-0.2,0.6c0,0.8-0.1,3.8-0.1,5.7c0,0.5,0.2,0.8,0.9,1.1c0.5,0.2,0.6,0.2,0.6,0.5c0,0.2-0.3,0.3-0.7,0.3   c-0.1,0-1.2,0-2.1,0c-0.8,0-1.3,0.1-1.9,0.1c-0.4,0-0.6-0.1-0.6-0.3c0-0.1,0.2-0.3,0.6-0.4c0.8-0.2,0.9-0.5,1-1.6   c0.1-0.7,0.1-3.1,0.1-4.9c0-0.1,0-0.4-0.2-0.6c-0.7-0.6-0.9-0.8-0.9-0.9C220.4,54.6,220.6,54.4,220.9,54.3z"
   id="path84"
   style="fill:#000000;fill-opacity:1" />
	<path
   class="st1"
   d="M246.6,54.3c0.5,0.5,0.9,1.2,0.9,2.1c0,0.1-0.2,0.5-0.5,0.5c-0.3,0-4.5,0-5.6,0c-0.1,0-0.2,0.1-0.2,0.2   c-0.1,0.2-0.1,0.6-0.1,0.9c0,0.9,0.4,2,0.9,2.7c0.6,0.7,1.6,1.3,2.8,1.3c1.1,0,1.8-0.3,2.2-0.9c0.1-0.1,0.2-0.3,0.3-0.3   c0.1,0,0.2,0.2,0.2,0.3c0,0.2-0.1,0.5-0.2,0.6c-0.9,1.2-2.1,1.9-3.7,1.9c-2.7,0-4.5-2.1-4.5-5c0-2,1.1-4,3-4.9   c0.6-0.3,1.5-0.4,1.9-0.4C244.9,53.4,245.9,53.7,246.6,54.3z M241.3,55.9c0,0.1,0,0.3,0.1,0.3c0.7,0,1.8,0,3.1,0   c0.5,0,0.8-0.2,0.8-0.7c0-0.7-0.7-1.5-1.6-1.5C242.7,54,241.7,54.8,241.3,55.9z"
   id="path85"
   style="fill:#000000;fill-opacity:1" />
</g>
</svg>
