<?xml version="1.0" encoding="UTF-8" standalone="no"?>
<!-- Created with Inkscape (http://www.inkscape.org/) -->

<svg
   version="1.1"
   id="svg1"
   width="61"
   height="282"
   viewBox="0 0 61.000001 282"
   xmlns="http://www.w3.org/2000/svg"
   xmlns:svg="http://www.w3.org/2000/svg">
  <defs
     id="defs1" />
  <g
     id="g1"
     transform="translate(-237.14366,-32.604183)">
    <g
       id="group-MC0"
       transform="matrix(1.4874465,0,0,1.4874465,-139.16852,-57.995938)">
      <path
         id="path14"
         d="m 0,0 c -1.29,-1.252 -2.793,-2.433 -4.533,-3.536 -1.009,-0.64 -2.215,0.508 -1.6,1.532 0.758,1.263 1.385,2.563 1.893,3.898 0.213,0.56 0.806,0.876 1.383,0.711 L -0.469,1.927 C 0.384,1.685 0.636,0.617 0,0 M 5.759,9.62 C 5.308,7.985 4.669,6.418 3.826,4.923 3.571,4.472 3.029,4.264 2.531,4.406 l -4.594,1.305 c -0.564,0.16 -0.902,0.718 -0.807,1.296 0.189,1.153 0.309,2.327 0.365,3.521 0.034,0.727 0.745,1.228 1.445,1.029 z m 0.808,9.233 C 6.668,17.243 6.664,15.677 6.539,14.158 6.48,13.437 5.785,12.944 5.089,13.142 l -6.949,1.973 c -0.451,0.128 -0.77,0.517 -0.816,0.983 -0.122,1.264 -0.299,2.546 -0.523,3.844 -0.142,0.821 0.632,1.505 1.433,1.277 z M 4.889,28.791 C 5.294,27.191 5.641,25.62 5.917,24.082 6.066,23.248 5.299,22.543 4.484,22.775 l -8.213,2.333 c -0.386,0.11 -0.683,0.413 -0.785,0.802 -0.352,1.338 -0.741,2.692 -1.162,4.059 -0.264,0.861 0.533,1.672 1.399,1.426 z M 1.687,39.163 C 2.251,37.559 2.784,35.977 3.277,34.418 3.552,33.552 2.753,32.729 1.879,32.977 l -8.875,2.521 c -0.354,0.101 -0.635,0.363 -0.758,0.71 -0.491,1.382 -1.003,2.777 -1.53,4.181 -0.329,0.876 0.475,1.755 1.375,1.499 z m -3.935,10.579 c 0.614,-1.602 1.22,-3.19 1.81,-4.761 0.328,-0.874 -0.482,-1.747 -1.379,-1.492 l -9.165,2.603 c -0.343,0.097 -0.62,0.348 -0.749,0.681 -0.545,1.402 -1.095,2.813 -1.644,4.23 -0.339,0.877 0.47,1.767 1.374,1.51 z m -4.004,10.6 c 0.583,-1.593 1.175,-3.177 1.77,-4.749 0.331,-0.875 -0.475,-1.75 -1.375,-1.494 l -9.2,2.613 c -0.351,0.1 -0.633,0.36 -0.761,0.702 -0.519,1.398 -1.03,2.801 -1.527,4.209 -0.307,0.87 0.504,1.726 1.392,1.474 z m -3.563,10.474 c 0.486,-1.575 0.995,-3.144 1.523,-4.705 0.295,-0.871 -0.502,-1.716 -1.387,-1.465 l -9.009,2.559 c -0.372,0.106 -0.666,0.392 -0.781,0.76 -0.431,1.381 -0.839,2.763 -1.222,4.147 -0.236,0.853 0.562,1.634 1.413,1.391 z m -2.723,10.235 c 0.338,-1.555 0.712,-3.108 1.118,-4.656 0.225,-0.856 -0.557,-1.634 -1.408,-1.393 l -8.582,2.438 c -0.408,0.116 -0.722,0.449 -0.81,0.864 -0.286,1.345 -0.54,2.691 -0.759,4.035 -0.132,0.819 0.644,1.495 1.442,1.268 z m -1.584,9.912 c 0.146,-1.536 0.341,-3.073 0.58,-4.609 0.129,-0.825 -0.627,-1.509 -1.43,-1.281 l -7.906,2.246 c -0.459,0.131 -0.794,0.534 -0.83,1.01 -0.098,1.303 -0.152,2.603 -0.165,3.9 -0.007,0.754 0.725,1.298 1.451,1.092 z m -0.228,9.526 c -0.084,-1.528 -0.102,-3.058 -0.066,-4.592 0.018,-0.761 -0.717,-1.316 -1.45,-1.108 l -6.943,1.972 c -0.528,0.151 -0.882,0.657 -0.828,1.204 0.125,1.247 0.299,2.49 0.524,3.727 0.119,0.657 0.79,1.062 1.432,0.88 z m 1.314,9.089 c -0.359,-1.504 -0.646,-3.015 -0.862,-4.53 -0.099,-0.688 -0.77,-1.137 -1.438,-0.947 l -5.66,1.607 c -0.612,0.174 -0.972,0.817 -0.783,1.425 0.367,1.18 0.784,2.355 1.26,3.523 0.218,0.535 0.813,0.817 1.369,0.659 z m 2.932,8.63 c -0.668,-1.491 -1.251,-2.989 -1.754,-4.495 -0.194,-0.581 -0.801,-0.911 -1.39,-0.744 l -4.084,1.16 c -0.703,0.2 -1.05,1.008 -0.688,1.644 0.629,1.103 1.316,2.2 2.062,3.29 0.276,0.403 0.787,0.584 1.257,0.45 z m 4.624,8.148 c -1.021,-1.466 -1.94,-2.942 -2.765,-4.429 -0.257,-0.464 -0.792,-0.692 -1.302,-0.547 l -2.167,0.616 c -0.807,0.229 -1.094,1.217 -0.544,1.851 0.88,1.015 1.817,2.023 2.816,3.022 0.293,0.294 0.728,0.405 1.126,0.292 z m 11.377,12.285 c -3.459,-2.922 -6.391,-5.911 -8.864,-8.953 -0.287,-0.353 -0.751,-0.502 -1.188,-0.377 -0.887,0.251 -1.124,1.394 -0.413,1.979 3.048,2.509 6.519,4.962 10.465,7.351"
         style="fill:#3f464d;fill-opacity:1;fill-rule:evenodd;stroke:none"
         transform="matrix(1.3333333,0,0,-1.3333333,284.98693,245.65)" />
    </g>
  </g>
</svg>
