<?xml version="1.0" encoding="UTF-8" standalone="no"?>
<!-- Created with Inkscape (http://www.inkscape.org/) -->

<svg
   version="1.1"
   id="svg1"
   width="559.37067"
   height="396.85068"
   viewBox="0 0 559.37067 396.85068"
   xmlns="http://www.w3.org/2000/svg"
   xmlns:svg="http://www.w3.org/2000/svg">
  <defs
     id="defs1" />
  <g
     id="g1">
    <g
       id="group-MC0">
      <path
         id="path13"
         d="m 0,0 c -2.881,-1.941 -15.355,-8.556 -19.629,-8.546 -8.69,0.02 -17.978,5.581 -22.68,6.02 -3.498,0.331 -8.535,-1.77 -10.883,-2.864 -0.635,-0.298 -9.034,-5.476 -10.759,-6.602 l 1.186,18.002 c 1.571,0.717 5.344,2.546 6.948,4.307 2.847,3.132 7.159,8.906 15.275,8.887 6.614,-0.016 12.346,-6.24 19.208,-9.865 3.428,-1.81 9.051,-2.488 10.191,-3.059 3.415,-1.718 -1.701,-3.716 -3.045,-3.963 -2.883,-0.542 -8.41,-0.841 -12.503,0.994 -6.729,3.021 -6.646,2.319 -6.646,2.319 0,0 1.91,-3.26 6.945,-4.823 5.839,-1.822 11.862,-1.463 15.163,-0.084 1.21,0.504 2.843,1.789 3.346,2.746 0.699,1.317 0.77,2.392 -1.649,4.248 -1.714,1.311 -6.512,2.055 -6.512,2.055 0,0 9.898,4.655 11.295,4.371 2.259,-0.451 1.1,-2.372 1.02,-2.5 0.147,0.097 5.524,3.792 7.397,2.932 2.616,-1.19 0.449,-3.579 0.112,-3.933 0.49,0.426 5.361,4.513 6.923,1.602 C 12.284,9.321 3.987,2.684 0,0"
         style="fill:#1574c4;fill-opacity:1;fill-rule:nonzero;stroke:none"
         transform="matrix(1.3333333,0,0,-1.3333333,305.1628,267.31733)" />
      <path
         id="path14"
         d="m 0,0 c -1.29,-1.252 -2.793,-2.433 -4.533,-3.536 -1.009,-0.64 -2.215,0.508 -1.6,1.532 0.758,1.263 1.385,2.563 1.893,3.898 0.213,0.56 0.806,0.876 1.383,0.711 L -0.469,1.927 C 0.384,1.685 0.636,0.617 0,0 M 5.759,9.62 C 5.308,7.985 4.669,6.418 3.826,4.923 3.571,4.472 3.029,4.264 2.531,4.406 l -4.594,1.305 c -0.564,0.16 -0.902,0.718 -0.807,1.296 0.189,1.153 0.309,2.327 0.365,3.521 0.034,0.727 0.745,1.228 1.445,1.029 z m 0.808,9.233 C 6.668,17.243 6.664,15.677 6.539,14.158 6.48,13.437 5.785,12.944 5.089,13.142 l -6.949,1.973 c -0.451,0.128 -0.77,0.517 -0.816,0.983 -0.122,1.264 -0.299,2.546 -0.523,3.844 -0.142,0.821 0.632,1.505 1.433,1.277 z M 4.889,28.791 C 5.294,27.191 5.641,25.62 5.917,24.082 6.066,23.248 5.299,22.543 4.484,22.775 l -8.213,2.333 c -0.386,0.11 -0.683,0.413 -0.785,0.802 -0.352,1.338 -0.741,2.692 -1.162,4.059 -0.264,0.861 0.533,1.672 1.399,1.426 z M 1.687,39.163 C 2.251,37.559 2.784,35.977 3.277,34.418 3.552,33.552 2.753,32.729 1.879,32.977 l -8.875,2.521 c -0.354,0.101 -0.635,0.363 -0.758,0.71 -0.491,1.382 -1.003,2.777 -1.53,4.181 -0.329,0.876 0.475,1.755 1.375,1.499 z m -3.935,10.579 c 0.614,-1.602 1.22,-3.19 1.81,-4.761 0.328,-0.874 -0.482,-1.747 -1.379,-1.492 l -9.165,2.603 c -0.343,0.097 -0.62,0.348 -0.749,0.681 -0.545,1.402 -1.095,2.813 -1.644,4.23 -0.339,0.877 0.47,1.767 1.374,1.51 z m -4.004,10.6 c 0.583,-1.593 1.175,-3.177 1.77,-4.749 0.331,-0.875 -0.475,-1.75 -1.375,-1.494 l -9.2,2.613 c -0.351,0.1 -0.633,0.36 -0.761,0.702 -0.519,1.398 -1.03,2.801 -1.527,4.209 -0.307,0.87 0.504,1.726 1.392,1.474 z m -3.563,10.474 c 0.486,-1.575 0.995,-3.144 1.523,-4.705 0.295,-0.871 -0.502,-1.716 -1.387,-1.465 l -9.009,2.559 c -0.372,0.106 -0.666,0.392 -0.781,0.76 -0.431,1.381 -0.839,2.763 -1.222,4.147 -0.236,0.853 0.562,1.634 1.413,1.391 z m -2.723,10.235 c 0.338,-1.555 0.712,-3.108 1.118,-4.656 0.225,-0.856 -0.557,-1.634 -1.408,-1.393 l -8.582,2.438 c -0.408,0.116 -0.722,0.449 -0.81,0.864 -0.286,1.345 -0.54,2.691 -0.759,4.035 -0.132,0.819 0.644,1.495 1.442,1.268 z m -1.584,9.912 c 0.146,-1.536 0.341,-3.073 0.58,-4.609 0.129,-0.825 -0.627,-1.509 -1.43,-1.281 l -7.906,2.246 c -0.459,0.131 -0.794,0.534 -0.83,1.01 -0.098,1.303 -0.152,2.603 -0.165,3.9 -0.007,0.754 0.725,1.298 1.451,1.092 z m -0.228,9.526 c -0.084,-1.528 -0.102,-3.058 -0.066,-4.592 0.018,-0.761 -0.717,-1.316 -1.45,-1.108 l -6.943,1.972 c -0.528,0.151 -0.882,0.657 -0.828,1.204 0.125,1.247 0.299,2.49 0.524,3.727 0.119,0.657 0.79,1.062 1.432,0.88 z m 1.314,9.089 c -0.359,-1.504 -0.646,-3.015 -0.862,-4.53 -0.099,-0.688 -0.77,-1.137 -1.438,-0.947 l -5.66,1.607 c -0.612,0.174 -0.972,0.817 -0.783,1.425 0.367,1.18 0.784,2.355 1.26,3.523 0.218,0.535 0.813,0.817 1.369,0.659 z m 2.932,8.63 c -0.668,-1.491 -1.251,-2.989 -1.754,-4.495 -0.194,-0.581 -0.801,-0.911 -1.39,-0.744 l -4.084,1.16 c -0.703,0.2 -1.05,1.008 -0.688,1.644 0.629,1.103 1.316,2.2 2.062,3.29 0.276,0.403 0.787,0.584 1.257,0.45 z m 4.624,8.148 c -1.021,-1.466 -1.94,-2.942 -2.765,-4.429 -0.257,-0.464 -0.792,-0.692 -1.302,-0.547 l -2.167,0.616 c -0.807,0.229 -1.094,1.217 -0.544,1.851 0.88,1.015 1.817,2.023 2.816,3.022 0.293,0.294 0.728,0.405 1.126,0.292 z m 11.377,12.285 c -3.459,-2.922 -6.391,-5.911 -8.864,-8.953 -0.287,-0.353 -0.751,-0.502 -1.188,-0.377 -0.887,0.251 -1.124,1.394 -0.413,1.979 3.048,2.509 6.519,4.962 10.465,7.351"
         style="fill:#3f464d;fill-opacity:1;fill-rule:evenodd;stroke:none"
         transform="matrix(1.3333333,0,0,-1.3333333,284.98693,245.65)" />
      <path
         id="path15"
         d="m 0,0 -4.594,-12.449 9.083,-0.021 z m 14.505,-23.402 -9.357,0.022 0.002,0.821 2.967,-0.007 -3.175,8.816 -10.041,0.023 -3.214,-8.8 2.966,-0.007 -0.002,-0.821 -6.891,0.015 0.002,0.821 1.688,-0.003 c 0.426,-0.001 0.716,0.211 0.869,0.637 L 0.423,5.385 1.975,5.381 11.952,-21.935 c 0.151,-0.427 0.44,-0.641 0.865,-0.642 l 1.69,-0.004 z"
         style="fill:#1574c4;fill-opacity:1;fill-rule:nonzero;stroke:none"
         transform="matrix(1.3333333,0,0,-1.3333333,126.12507,251.93187)" />
      <path
         id="path16"
         d="m 0,0 -4.609,0.011 -0.03,-12.87 4.609,-0.011 c 1.826,-0.005 3.25,0.631 4.272,1.907 1.023,1.275 1.536,2.779 1.54,4.514 C 5.786,-4.715 5.28,-3.207 4.263,-1.927 3.247,-0.646 1.826,-0.004 0,0 m 9.249,-26.538 c 0.457,-0.001 0.829,0.187 1.119,0.567 0.29,0.38 0.436,0.835 0.437,1.368 10e-4,0.533 -0.042,1.028 -0.133,1.484 l 0.867,0.135 c 0.12,-0.456 0.181,-0.958 0.179,-1.506 -0.002,-1.096 -0.331,-1.962 -0.987,-2.599 -0.656,-0.638 -1.502,-0.956 -2.536,-0.953 -2.586,0.005 -3.875,1.576 -3.867,4.709 0.007,3.134 -0.383,5.44 -1.171,6.918 -0.788,1.477 -2.399,2.219 -4.833,2.225 l -2.967,0.006 -0.027,-11.82 c -0.001,-0.427 0.212,-0.64 0.637,-0.641 l 3.059,-0.007 -0.002,-0.821 -10.224,0.023 0.002,0.822 2.145,-0.005 c 0.426,-0.001 0.64,0.211 0.641,0.638 l 0.06,25.924 c 10e-4,0.364 -0.212,0.547 -0.638,0.548 l -2.145,0.005 0.002,0.822 L 0.231,1.278 C 2.787,1.272 4.96,0.566 6.753,-0.837 8.545,-2.242 9.438,-4.115 9.432,-6.458 9.428,-8.344 8.838,-9.933 7.665,-11.223 6.489,-12.513 4.943,-13.4 3.026,-13.882 c 2.158,-0.735 3.524,-2.046 4.099,-3.934 0.452,-1.553 0.676,-3.394 0.671,-5.524 -0.004,-2.13 0.479,-3.196 1.453,-3.198"
         style="fill:#1574c4;fill-opacity:1;fill-rule:nonzero;stroke:none"
         transform="matrix(1.3333333,0,0,-1.3333333,164.35227,246.54453)" />
      <path
         id="path17"
         d="m 0,0 c -2.008,0.004 -4.014,0.557 -6.021,1.658 -0.667,0.335 -1.125,0.504 -1.368,0.505 -0.456,0.001 -0.7,-0.318 -0.732,-0.956 l -0.046,-0.64 -0.868,0.002 0.018,7.622 0.821,-0.002 C -7.928,5.846 -7.057,4.117 -5.584,3.003 -4.111,1.888 -2.363,1.33 -0.339,1.325 1.685,1.32 3.222,1.864 4.274,2.957 5.327,4.05 5.855,5.342 5.859,6.833 5.864,9.206 4.5,11.004 1.763,12.228 l -5.425,2.432 c -1.642,0.733 -2.872,1.732 -3.691,2.998 -0.818,1.263 -1.226,2.627 -1.222,4.088 0.005,2.22 0.756,4.128 2.249,5.722 1.495,1.594 3.642,2.387 6.442,2.38 1.643,-0.003 3.33,-0.555 5.062,-1.654 0.576,-0.337 0.972,-0.504 1.185,-0.505 0.395,-0.001 0.61,0.318 0.641,0.957 L 7.052,29.559 7.919,29.557 7.901,21.661 7.08,21.663 c -0.239,2.343 -0.988,4.072 -2.248,5.185 -1.26,1.113 -2.796,1.673 -4.605,1.677 -1.811,0.004 -3.212,-0.488 -4.203,-1.474 -0.991,-0.987 -1.488,-2.112 -1.491,-3.373 -0.003,-1.263 0.337,-2.398 1.019,-3.403 0.682,-1.005 1.691,-1.8 3.03,-2.38 L 4.053,15.463 C 5.877,14.638 7.25,13.561 8.176,12.236 9.101,10.91 9.562,9.486 9.558,7.965 9.553,5.805 8.681,3.935 6.943,2.358 5.205,0.779 2.891,-0.007 0,0"
         style="fill:#1574c4;fill-opacity:1;fill-rule:nonzero;stroke:none"
         transform="matrix(1.3333333,0,0,-1.3333333,197.06573,283.98533)" />
      <path
         id="path18"
         d="M 0,0 0.002,0.821 14.196,0.788 c 2.403,-0.006 4.093,0.128 5.067,0.399 -0.277,-1.247 -0.417,-2.981 -0.422,-5.202 l -0.005,-2.144 -1.05,0.002 -0.674,4.657 c -0.06,0.669 -0.485,1.005 -1.276,1.007 l -9.311,0.022 -0.029,-12.46 8.991,-0.021 c 0.304,-10e-4 0.488,0.211 0.55,0.637 l 0.234,2.83 0.823,-0.002 -0.02,-8.215 -0.822,0.002 -0.221,2.829 c -0.06,0.426 -0.243,0.64 -0.547,0.641 l -8.991,0.021 -0.028,-12.277 c -10e-4,-0.427 0.212,-0.64 0.637,-0.641 l 3.97,-0.009 -10e-4,-0.822 -11.135,0.026 0.002,0.822 2.144,-0.005 c 0.426,-0.001 0.64,0.211 0.641,0.638 l 0.06,25.922 c 10e-4,0.366 -0.213,0.549 -0.638,0.55 z"
         style="fill:#1574c4;fill-opacity:1;fill-rule:nonzero;stroke:none"
         transform="matrix(1.3333333,0,0,-1.3333333,324.11067,245.28547)" />
      <path
         id="path19"
         d="m 0,0 0.061,25.923 c 0.001,0.365 -0.213,0.548 -0.639,0.549 l -2.145,0.006 0.002,0.821 L 6.59,27.277 6.588,26.456 4.442,26.46 C 4.017,26.461 3.804,26.279 3.803,25.914 L 3.742,-0.008 C 3.741,-0.435 3.953,-0.648 4.379,-0.65 l 2.145,-0.005 -0.002,-0.821 -9.31,0.022 0.002,0.821 2.144,-0.005 C -0.216,-0.639 -0.001,-0.427 0,0"
         style="fill:#1574c4;fill-opacity:1;fill-rule:nonzero;stroke:none"
         transform="matrix(1.3333333,0,0,-1.3333333,357.37627,280.65787)" />
      <path
         id="path20"
         d="M 0,0 C -2.008,0.004 -4.015,0.557 -6.021,1.657 -6.688,1.993 -7.146,2.162 -7.389,2.163 -7.845,2.164 -8.089,1.845 -8.121,1.205 L -8.168,0.567 -9.035,0.569 -9.017,8.191 -8.195,8.189 C -7.928,5.844 -7.057,4.116 -5.584,3.002 -4.11,1.888 -2.363,1.33 -0.339,1.325 1.685,1.32 3.223,1.863 4.274,2.957 5.327,4.05 5.855,5.342 5.858,6.833 5.864,9.206 4.499,11.004 1.763,12.227 l -5.425,2.432 c -1.642,0.734 -2.872,1.733 -3.691,2.998 -0.818,1.264 -1.225,2.628 -1.222,4.088 0.005,2.22 0.756,4.129 2.25,5.723 1.495,1.593 3.64,2.387 6.44,2.38 1.644,-0.004 3.331,-0.556 5.063,-1.654 0.577,-0.337 0.972,-0.505 1.185,-0.505 0.395,-0.001 0.61,0.318 0.642,0.957 L 7.053,29.559 7.92,29.557 7.901,21.661 7.08,21.663 c -0.239,2.342 -0.987,4.071 -2.248,5.185 -1.26,1.113 -2.796,1.673 -4.605,1.677 -1.811,0.004 -3.212,-0.488 -4.203,-1.474 -0.992,-0.987 -1.488,-2.112 -1.491,-3.373 -0.003,-1.264 0.337,-2.398 1.02,-3.403 0.681,-1.005 1.69,-1.8 3.029,-2.38 L 4.053,15.463 C 5.877,14.637 7.251,13.561 8.176,12.236 9.101,10.909 9.562,9.486 9.558,7.965 9.553,5.804 8.682,3.935 6.943,2.356 5.205,0.779 2.891,-0.007 0,0"
         style="fill:#1574c4;fill-opacity:1;fill-rule:nonzero;stroke:none"
         transform="matrix(1.3333333,0,0,-1.3333333,383.2916,283.39613)" />
      <path
         id="path21"
         d="m 0,0 0.061,25.923 c 0.001,0.365 -0.213,0.548 -0.639,0.549 l -2.145,0.005 0.002,0.821 L 6.59,27.277 6.588,26.456 4.442,26.46 C 4.017,26.461 3.804,26.279 3.803,25.914 L 3.742,-0.009 C 3.741,-0.436 3.953,-0.649 4.379,-0.65 l 2.145,-0.005 -0.002,-0.821 -9.31,0.021 0.002,0.822 2.144,-0.005 C -0.216,-0.639 -0.001,-0.427 0,0"
         style="fill:#1574c4;fill-opacity:1;fill-rule:nonzero;stroke:none"
         transform="matrix(1.3333333,0,0,-1.3333333,405.5104,280.76973)" />
      <path
         id="path22"
         d="m 0,0 c -1.756,-2.46 -2.639,-5.806 -2.648,-10.035 -0.01,-4.229 0.857,-7.578 2.601,-10.047 1.743,-2.469 3.923,-3.706 6.54,-3.712 2.616,-0.006 4.811,1.221 6.581,3.682 1.771,2.46 2.661,5.805 2.671,10.034 C 15.755,-5.849 14.88,-2.5 13.121,-0.03 11.362,2.438 9.173,3.675 6.557,3.681 3.939,3.687 1.755,2.46 0,0 m -2.925,-20.988 c -2.413,2.653 -3.613,6.307 -3.602,10.962 0.01,4.655 1.228,8.304 3.653,10.945 2.425,2.642 5.577,3.957 9.456,3.949 3.88,-0.01 7.026,-1.34 9.439,-3.993 2.413,-2.652 3.614,-6.307 3.603,-10.962 -0.011,-4.655 -1.228,-8.304 -3.654,-10.945 -2.425,-2.641 -5.577,-3.958 -9.457,-3.949 -3.879,0.009 -7.026,1.341 -9.438,3.993"
         style="fill:#1574c4;fill-opacity:1;fill-rule:nonzero;stroke:none"
         transform="matrix(1.3333333,0,0,-1.3333333,427.2148,250.2112)" />
    </g>
  </g>
</svg>
