<?xml version="1.0" encoding="UTF-8" standalone="no"?>
<!-- Created with Inkscape (http://www.inkscape.org/) -->

<svg
   version="1.1"
   id="svg1"
   width="512"
   height="512"
   viewBox="0 0 512 512"
   xmlns:xlink="http://www.w3.org/1999/xlink"
   xmlns="http://www.w3.org/2000/svg"
   xmlns:svg="http://www.w3.org/2000/svg">
  <defs
     id="defs1">
    <linearGradient
       id="linearGradient2">
      <stop
         style="stop-color:#2c67a0;stop-opacity:1;"
         offset="0"
         id="stop2" />
      <stop
         style="stop-color:#2c67a0;stop-opacity:0.24101479;"
         offset="1"
         id="stop3" />
    </linearGradient>
    <linearGradient
       xlink:href="#linearGradient2"
       id="linearGradient3"
       x1="399.54343"
       y1="256"
       x2="112.45657"
       y2="256"
       gradientUnits="userSpaceOnUse" />
  </defs>
  <g
     id="g1">
    <path
       style="fill:url(#linearGradient3);fill-opacity:1"
       d="m 136.67494,510.92809 c -9.26298,-2.32629 -17.90802,-9.62176 -21.88728,-18.47047 -1.6919,-3.7623 -2.24595,-6.85655 -2.23823,-12.5 0.0202,-14.76862 -7.44629,-6.32994 107.2812,-121.25 l 102.57782,-102.75 -102.57782,-102.75 C 105.10314,38.287557 112.56963,46.726237 112.54943,31.957617 c -0.0127,-9.30596 2.52989,-15.51031 9.09576,-22.19488 6.41995,-6.5360104 12.85156,-9.18591041 22.29528,-9.18591041 14.82476,0 4.90239,-8.88356999 133.79275,119.78575341 129.73399,129.5115 121.71377,120.57702 121.70069,135.57401 -0.013,14.93728 8.45041,5.49657 -120.78375,134.73072 -101.428,101.42801 -115.87789,115.51336 -120.79559,117.74819 -6.2664,2.84773 -15.48871,3.94179 -21.17963,2.51259 z"
       id="path1" />
  </g>
</svg>
