<?xml version="1.0" encoding="UTF-8" standalone="no"?>
<!-- Created with Inkscape (http://www.inkscape.org/) -->

<svg
   version="1.1"
   id="svg1"
   width="559.37097"
   height="396.85101"
   viewBox="0 0 559.37098 396.85102"
   xmlns="http://www.w3.org/2000/svg"
   xmlns:svg="http://www.w3.org/2000/svg">
  <defs
     id="defs1" />
  <g
     id="g1">
    <g
       id="group-MC0"
       transform="matrix(1.4874465,0,0,1.4874465,-139.16852,-57.995938)">
      <path
         id="path13"
         d="m 312.25612,286.30939 c -4.58487,3.08894 -24.43619,13.61615 -31.2379,13.60024 -13.82939,-0.0318 -28.61045,-8.88169 -36.09329,-9.58032 -5.56677,-0.52676 -13.58273,2.81681 -17.31937,4.55781 -1.01055,0.47424 -14.37684,8.7146 -17.12204,10.50652 l 1.88742,-28.64865 c 2.50012,-1.14105 8.50452,-4.05175 11.05716,-6.85423 4.53076,-4.98431 11.39293,-14.17314 24.30887,-14.1429 10.52561,0.0254 19.64761,9.93043 30.56789,15.69931 5.45538,2.88046 14.4039,3.95944 16.21812,4.86813 5.43468,2.73406 -2.707,5.9137 -4.84586,6.30679 -4.58805,0.86255 -13.3838,1.33838 -19.89747,-1.58187 -10.70863,-4.80767 -10.57654,-3.69049 -10.57654,-3.69049 0,0 3.03961,5.188 11.05238,7.67539 9.29227,2.89956 18.87736,2.32824 24.13063,0.13367 1.92561,-0.80206 4.52439,-2.84703 5.32488,-4.37002 1.11239,-2.0959 1.22538,-3.80666 -2.62425,-6.76033 -2.72769,-2.08634 -10.36329,-3.27036 -10.36329,-3.27036 0,0 15.75182,-7.40804 17.97503,-6.95607 3.59501,0.71772 1.75056,3.77484 1.62324,3.97854 0.23394,-0.15437 8.79098,-6.03465 11.7717,-4.66604 4.16314,1.89379 0.71454,5.69568 0.17824,6.25905 0.77979,-0.67795 8.53157,-7.18206 11.01736,-2.54946 2.51604,4.65171 -10.68794,15.21393 -17.03291,19.48529"
         style="fill:#1574c4;fill-opacity:1;fill-rule:nonzero;stroke:none;stroke-width:1.59141" />
      <path
         id="path14"
         d="m 288.17497,260.44811 c -2.05292,1.99245 -4.44482,3.8719 -7.21388,5.62724 -1.60573,1.01851 -3.52499,-0.80844 -2.54626,-2.43805 1.20629,-2.00995 2.20411,-4.0788 3.01255,-6.20334 0.33897,-0.89119 1.28268,-1.39408 2.20093,-1.13149 l 3.8003,1.07897 c 1.35748,0.38513 1.75851,2.08476 0.74636,3.06667 m 9.16497,-15.30943 c -0.71773,2.60198 -1.73464,5.09572 -3.0762,7.47489 -0.40581,0.71772 -1.26836,1.04874 -2.06089,0.82276 l -7.31096,-2.0768 c -0.89756,-0.25463 -1.43546,-1.14263 -1.28428,-2.06248 0.30079,-1.8349 0.49175,-3.70322 0.58088,-5.60337 0.0541,-1.15696 1.1856,-1.95425 2.29959,-1.63756 z m 1.28586,-14.69353 c 0.16074,2.56218 0.15436,5.05433 -0.0445,7.4717 -0.0939,1.1474 -1.19992,1.93197 -2.30755,1.61688 l -11.05874,-3.13986 c -0.71773,-0.20371 -1.22539,-0.82277 -1.29859,-1.56437 -0.19416,-2.01154 -0.47583,-4.05174 -0.83232,-6.1174 -0.22597,-1.30655 1.00577,-2.39508 2.28051,-2.03223 z m -2.67039,-15.81548 c 0.64452,2.54626 1.19674,5.04638 1.63597,7.49398 0.23713,1.32724 -0.98349,2.44918 -2.28049,2.07997 l -13.0703,-3.71277 c -0.61428,-0.17506 -1.08694,-0.65725 -1.24926,-1.27631 -0.56018,-2.12932 -1.17924,-4.28409 -1.84922,-6.45956 -0.42013,-1.37021 0.84822,-2.66084 2.22639,-2.26935 z m -5.09571,-16.50616 c 0.89756,2.55263 1.74577,5.07025 2.53035,7.55127 0.43764,1.37816 -0.8339,2.6879 -2.2248,2.29323 l -14.12382,-4.01196 c -0.56336,-0.16073 -1.01054,-0.57768 -1.20628,-1.12991 -0.78139,-2.19934 -1.59619,-4.41936 -2.43487,-6.65371 -0.52358,-1.39407 0.75592,-2.79293 2.1882,-2.38552 z m -6.26222,-16.83558 c 0.97713,2.54945 1.94152,5.07661 2.88045,7.57673 0.52199,1.39089 -0.76706,2.7802 -2.19455,2.37439 l -14.58533,-4.14246 c -0.54585,-0.15437 -0.98667,-0.55381 -1.19196,-1.08376 -0.86732,-2.23115 -1.74261,-4.47664 -2.61629,-6.73168 -0.53949,-1.39567 0.74796,-2.81203 2.1866,-2.40304 z m -6.37203,-16.86901 c 0.9278,2.53513 1.86991,5.05594 2.8168,7.55764 0.52676,1.39248 -0.75592,2.78498 -2.18819,2.37757 l -14.64103,-4.15837 c -0.55858,-0.15914 -1.00735,-0.57291 -1.21106,-1.11717 -0.82594,-2.22479 -1.63915,-4.45756 -2.43009,-6.69827 -0.48856,-1.38452 0.80208,-2.74678 2.21525,-2.34575 z m -5.67022,-16.66847 c 0.77344,2.50647 1.58347,5.0034 2.42373,7.48761 0.46947,1.38612 -0.79888,2.73086 -2.20729,2.33141 l -14.33706,-4.07243 c -0.59201,-0.16868 -1.05989,-0.62383 -1.2429,-1.20947 -0.6859,-2.19775 -1.3352,-4.39708 -1.9447,-6.5996 -0.37558,-1.35748 0.89437,-2.60037 2.24867,-2.21366 z m -4.33342,-16.28814 c 0.5379,2.47465 1.1331,4.94611 1.7792,7.40963 0.35807,1.36225 -0.88641,2.60037 -2.24071,2.21684 l -13.65752,-3.87987 c -0.6493,-0.18461 -1.149,-0.71455 -1.28904,-1.37499 -0.45515,-2.14045 -0.85937,-4.28249 -1.2079,-6.42136 -0.21006,-1.30336 1.02488,-2.37916 2.29483,-2.0179 z m -2.5208,-15.77411 c 0.23235,2.44441 0.54268,4.89042 0.92302,7.33484 0.2053,1.31291 -0.99781,2.40144 -2.27572,2.0386 l -12.58173,-3.57432 c -0.73046,-0.20847 -1.26359,-0.84981 -1.32087,-1.60733 -0.15597,-2.07361 -0.2419,-4.14245 -0.26259,-6.20652 -0.0112,-1.19993 1.15378,-2.06566 2.30915,-1.73783 z m -0.36284,-15.15982 c -0.13368,2.43168 -0.16233,4.86654 -0.105,7.30778 0.0287,1.21107 -1.14105,2.0943 -2.30755,1.76329 l -11.0492,-3.13828 c -0.84027,-0.2403 -1.40362,-1.04555 -1.3177,-1.91606 0.19893,-1.9845 0.47584,-3.96262 0.83391,-5.931202 0.18938,-1.045556 1.25722,-1.690088 2.27891,-1.400445 z m 2.09112,-14.464377 c -0.57132,2.393492 -1.02805,4.798123 -1.3718,7.209118 -0.15755,1.094893 -1.2254,1.809437 -2.28845,1.507068 l -9.00742,-2.557402 c -0.97395,-0.276907 -1.54685,-1.300194 -1.24608,-2.267768 0.58406,-1.877875 1.24768,-3.74779 2.00519,-5.606555 0.34693,-0.851406 1.29382,-1.300194 2.17864,-1.048748 z m 4.66603,-13.73391 c -1.06306,2.3728 -1.99086,4.75674 -2.79135,7.153412 -0.30873,0.924612 -1.27472,1.449779 -2.21207,1.184012 l -6.49933,-1.846041 c -1.11877,-0.318283 -1.67098,-1.604147 -1.09489,-2.616287 1.001,-1.755331 2.09429,-3.501114 3.28149,-5.235756 0.43923,-0.64134 1.25245,-0.929386 2.00042,-0.716137 z m 7.3587,-12.966851 c -1.62483,2.333015 -3.08734,4.681943 -4.40026,7.048378 -0.40899,0.738417 -1.2604,1.101259 -2.07202,0.870504 l -3.4486,-0.980311 c -1.28427,-0.364435 -1.741,-1.936754 -0.86573,-2.945711 1.40044,-1.615286 2.89161,-3.219432 4.48142,-4.809257 0.46629,-0.467876 1.15855,-0.644522 1.79194,-0.464692 z m 18.10554,-19.550536 c -5.50471,4.650115 -10.17074,9.406855 -14.10631,14.24794 -0.45674,0.56177 -1.19516,0.798891 -1.8906,0.599963 -1.41159,-0.399444 -1.78876,-2.218432 -0.65726,-3.14941 4.85063,-3.992861 10.37444,-7.896602 16.65417,-11.698493"
         style="fill:#3f464d;fill-opacity:1;fill-rule:evenodd;stroke:none;stroke-width:1.59141" />
    </g>
  </g>
</svg>
